<svg width="24" height="24" viewBox="0 0 24 24" fill="none" xmlns="http://www.w3.org/2000/svg">
<g clip-path="url(#clip0_7_28)">
<path fill-rule="evenodd" clip-rule="evenodd" d="M24 12.0011C23.9985 14.5888 23.1606 17.1068 21.6112 19.1793C20.0618 21.2519 17.8839 22.7681 15.4024 23.5018C12.9209 24.2355 10.2687 24.1474 7.84136 23.2506C5.41402 22.3539 3.34159 20.6965 1.93315 18.5256C0.524719 16.3548 -0.144251 13.7868 0.0260122 11.2047C0.196275 8.62262 1.19665 6.16473 2.87794 4.19763C4.55922 2.23053 6.83134 0.859601 9.35543 0.289318C11.8795 -0.280966 14.5203 -0.020053 16.884 1.03314L16.07 2.86C14.1003 1.98234 11.8996 1.76491 9.79619 2.24015C7.69279 2.71538 5.79935 3.85782 4.39828 5.49707C2.99721 7.13633 2.16356 9.18456 2.02168 11.3363C1.87979 13.4881 2.43727 15.628 3.61096 17.4371C4.78466 19.2461 6.51168 20.6273 8.53447 21.3746C10.5573 22.1219 12.7674 22.1953 14.8354 21.5839C16.9033 20.9725 18.7182 19.709 20.0093 17.9818C21.3005 16.2547 21.9988 14.1564 22 12V11.08H24V12.0011Z" fill="#37C6AB"/>
<path fill-rule="evenodd" clip-rule="evenodd" d="M11.9996 13.5954L21.2925 4.29325L22.7075 5.70675L12.0004 16.4246L6.29289 10.7171L7.70711 9.30289L11.9996 13.5954Z" fill="#37C6AB"/>
</g>
<defs>
<clipPath id="clip0_7_28">
<rect width="24" height="24" fill="white"/>
</clipPath>
</defs>
</svg>
