<svg width="52" height="54" viewBox="0 0 52 54" fill="none" xmlns="http://www.w3.org/2000/svg">
<path fill-rule="evenodd" clip-rule="evenodd" d="M11.634 7.15463L12.6711 7.32679L13.739 7.64008L35.0274 15.6857L35.9591 16.0809L36.8534 16.5825L37.7037 17.1796L38.503 17.8615L39.2443 18.6179L39.9205 19.4385L40.5242 20.3136L41.0476 21.2334L41.483 22.1881L41.8219 23.1683L42.0559 24.1641L42.1759 25.166L42.5551 47.0184L42.5551 47.019L42.4274 48.0806L42.1759 49.0626L41.8072 49.9563L41.3277 50.7528L40.7441 51.4425L40.0636 52.0156L39.293 52.462L38.4405 52.7712L37.5136 52.9328L36.5211 52.9362L35.4719 52.771L11.9507 47.557L10.8015 47.2808L9.59253 46.7422L8.43689 45.9621L7.40248 45.151L6.45778 44.2248L5.6152 43.1994L4.88673 42.0908L4.28387 40.9155L3.81763 39.6898L3.4984 38.4305L3.3358 37.1539L3.33896 35.8767L5.20693 12.3471L5.35685 11.3229L5.64848 10.3987L6.06933 9.57979L6.60705 8.87083L7.24955 8.2762L7.98502 7.79996L8.80202 7.44598L9.68951 7.21797L10.6369 7.11963L11.634 7.15463ZM42.5551 47.0184L42.1759 25.166L42.5526 45.886L42.5551 47.0184Z" fill="url(#paint0_linear_1_2)" fill-opacity="0.5"/>
<path fill-rule="evenodd" clip-rule="evenodd" d="M9.89758 5.13988L9.74765 6.16415L7.97511 31.5446L7.97195 32.8218L8.13451 34.0983L8.45378 35.3577L8.92002 36.5834L9.52287 37.7588L10.2513 38.8673L11.0939 39.8927L12.0386 40.8189L13.073 41.63L14.1845 42.311L15.3599 42.8473L16.5863 43.2248L41.7411 49.1477L42.7903 49.313L43.7828 49.3096L44.7096 49.148L45.5622 48.8388L44.7133 49.3618L43.9458 49.8066L43.1348 50.3068L43.9454 49.8068L43.9458 49.8066L44.7133 49.3618L45.5622 48.8388L46.3327 48.3924L44.7141 49.3613L44.7137 49.3616L44.7133 49.3618L43.9458 49.8066L43.1348 50.3068L41.5946 51.2288L40.0917 52.1284L39.3322 52.569L38.4955 52.8785L37.5898 53.0467L36.6235 53.0637L35.6055 52.9191L11.3328 47.5866L10.1555 47.2426L9.0299 46.7457L7.9684 46.1091L6.98313 45.3466L6.08601 44.4726L5.28866 43.5019L4.60234 42.4495L4.03783 41.3309L3.60547 40.1617L3.31501 38.9575L3.17564 37.7339L3.19589 36.5064L5.25429 11.9747L5.41363 10.9785L5.70886 10.076L7.20754 7.85706L7.74029 7.15478L8.84825 5.70234L9.98359 4.21401L11.1467 2.68931L10.6101 3.39681L10.1892 4.21572L9.89758 5.13988Z" fill="url(#paint1_linear_1_2)"/>
<g filter="url(#filter0_b_1_2)">
<path fill-rule="evenodd" clip-rule="evenodd" d="M16.1754 0.971528L17.2126 1.14369L18.2804 1.45698L40.2695 9.29878L41.2012 9.69393L42.0955 10.1956L42.9458 10.7927L43.7451 11.4746L44.4864 12.231L45.1626 13.0516L45.7663 13.9267L46.2897 14.8465L46.725 15.8012L47.064 16.7813L47.298 17.7772L47.418 18.7791L48.825 43.395L48.8251 43.3956L48.6973 44.4572L48.4459 45.4392L48.0771 46.3329L47.5976 47.1294L47.0141 47.8191L46.3335 48.3922L45.563 48.8386L44.7104 49.1478L43.7835 49.3094L42.7911 49.3129L41.7418 49.1476L16.5876 43.2248L15.4383 42.9486L14.2294 42.41L13.0737 41.6299L12.0393 40.8187L11.0946 39.8926L10.2521 38.8672L9.52359 37.7586L8.92073 36.5832L8.45449 35.3576L8.13526 34.0983L7.97266 32.8217L7.97582 31.5444L9.74836 6.16402L9.89829 5.13975L10.1899 4.21559L10.6108 3.39668L11.1485 2.68773L11.791 2.0931L12.5265 1.61686L13.3435 1.26287L14.2309 1.03487L15.1783 0.936523L16.1754 0.971528ZM48.825 43.395L47.418 18.7791L48.8226 42.2626L48.825 43.395Z" fill="url(#paint2_linear_1_2)" fill-opacity="0.3"/>
</g>
<g filter="url(#filter1_b_1_2)">
<path fill-rule="evenodd" clip-rule="evenodd" d="M16.8167 42.2514L15.7613 41.9978L14.7163 41.5322L13.6628 40.821L12.6999 40.0659L11.8331 39.2162L11.0585 38.2735L10.3888 37.2544L9.83574 36.176L9.40966 35.0559L9.11955 33.9116L8.97281 32.7595L8.97573 31.5806L10.7433 6.27143L10.8761 5.36407L11.1181 4.59732L11.4603 3.93142L11.8922 3.362L12.4069 2.8856L13.0002 2.5014L13.6687 2.2118L14.408 2.02187L15.2126 1.93834L16.0756 1.96864L16.9891 2.12028L17.9715 2.40848L39.906 10.2308L40.76 10.593L41.5622 11.043L42.3326 11.584L43.0622 12.2065L43.7421 12.9001L44.3637 13.6546L44.9186 14.4589L45.3984 15.3021L45.7955 16.1729L46.1022 17.0599L46.3117 17.9516L46.4216 18.8685L47.8227 42.2936L47.8249 43.3371L47.7123 44.2727L47.4946 45.1229L47.1815 45.8818L46.7823 46.5448L46.3053 47.1087L45.7564 47.5708L45.1385 47.9288L44.4521 48.1777L43.6953 48.3097L42.8676 48.3126L41.9344 48.1656L16.8212 42.2524L16.8167 42.2514ZM41.7418 49.1476L16.5876 43.2248L16.5871 43.2247L15.4383 42.9486L14.2294 42.41L13.0737 41.6299L12.0393 40.8187L11.0946 39.8926L10.2521 38.8672L9.52359 37.7586L8.92073 36.5832L8.45449 35.3576L8.13526 34.0983L7.97266 32.8217L7.97582 31.5444L9.74836 6.16402L9.89829 5.13975L10.1899 4.21559L10.6108 3.39668L11.1485 2.68773L11.791 2.0931L12.5265 1.61686L13.3435 1.26287L14.2309 1.03487L15.1783 0.936523L16.1754 0.971528L17.2126 1.14369L18.2804 1.45698L40.2695 9.29878L41.2012 9.69393L42.0955 10.1956L42.9458 10.7927L43.7451 11.4746L44.4864 12.231L45.1626 13.0516L45.7663 13.9267L46.2897 14.8465L46.725 15.8012L47.064 16.7813L47.298 17.7772L47.418 18.7791L48.8226 42.2626L48.825 43.395L48.8251 43.3956L48.6973 44.4572L48.4459 45.4392L48.0771 46.3329L47.5976 47.1294L47.0141 47.8191L46.3335 48.3922L45.563 48.8386L44.7104 49.1478L43.7835 49.3094L42.7911 49.3129L41.7418 49.1476Z" fill="url(#paint3_linear_1_2)"/>
</g>
<path fill-rule="evenodd" clip-rule="evenodd" d="M44.0153 20.966V20.9661V20.9662C44.0145 20.9881 44.0138 21.0101 44.0145 21.0325C44.055 22.241 44.1153 23.456 44.1889 24.6734L44.3367 27.6627C44.5003 30.6441 43.4461 33.1352 41.3303 34.8269C42.7209 33.2178 43.3916 31.1194 43.2587 28.6975L43.111 25.7082C43.0373 24.4908 42.977 23.2758 42.9366 22.0673C42.9358 22.0449 42.9366 22.023 42.9373 22.0011V22.001V22.001V22.0009V22.0008C42.9385 21.9633 42.9398 21.9258 42.9337 21.8859C42.9095 21.7282 42.7658 21.5465 42.5599 21.4253C37.8881 18.368 33.2273 15.2993 28.5778 12.219C28.3643 12.0696 28.1173 11.985 27.9118 11.9911C25.6591 11.9561 23.5792 11.6748 21.4993 11.3935C19.434 11.1142 17.3687 10.8349 15.1338 10.7967C15.1291 10.7966 15.1219 10.7997 15.1128 10.8057C15.15 10.7649 15.2068 10.7386 15.2783 10.7307C15.3283 10.7252 15.3838 10.7287 15.4393 10.7322C15.4689 10.7341 15.4985 10.7359 15.5274 10.7364C20.013 10.8133 24.5002 10.8864 28.9898 10.9563C29.1953 10.9502 29.4423 11.0347 29.6557 11.1842C34.3053 14.2644 38.9661 17.3332 43.6379 20.3905C43.8438 20.5117 43.9875 20.6933 44.0116 20.8511C44.0178 20.891 44.0165 20.9285 44.0153 20.966V20.966ZM15.0863 10.8434C15.0935 10.8297 15.1024 10.8172 15.1128 10.8057C15.0391 10.8541 14.8326 11.0876 14.634 11.3123C14.4313 11.5416 14.2368 11.7615 14.2003 11.7656C14.1088 11.7756 14.0413 11.8159 14.0083 11.8782C13.9754 11.9404 13.985 12.0296 13.9945 12.1181C13.9974 12.1458 14.0004 12.1736 14.0021 12.2003C14.0681 13.2728 14.1205 14.3411 14.1729 15.4094C14.2309 16.5915 14.2889 17.7736 14.3653 18.9613C14.543 22.1447 16.1035 25.7137 18.8168 29.143C21.4406 32.4754 24.727 35.3446 28.8258 37.6285C29.2675 37.8792 29.7363 38.0395 30.1682 38.0878C33.8667 38.5449 37.0702 37.9942 39.3163 36.5156C40.0997 36.0384 40.7729 35.472 41.3303 34.8269C41.0384 35.0603 40.7262 35.2786 40.3942 35.4807C38.1482 36.9594 34.9446 37.5101 31.2462 37.053C30.8143 37.0046 30.3454 36.8443 29.9037 36.5937C25.805 34.3098 22.5186 31.4406 19.8948 28.1082C17.1814 24.6789 15.621 21.1098 15.4433 17.9265C15.3669 16.7388 15.3089 15.5567 15.2509 14.3746L15.2509 14.3746L15.2509 14.3746L15.2509 14.3746L15.2509 14.3746L15.2509 14.3746L15.2509 14.3746C15.1985 13.3063 15.1461 12.238 15.08 11.1655C15.0784 11.1387 15.0754 11.111 15.0724 11.0832C15.0629 10.9948 15.0533 10.9056 15.0863 10.8434ZM39.2734 33.0522C41.0972 31.648 42.0077 29.5485 41.8672 27.0266L41.5973 21.5574C41.5961 21.5341 41.5967 21.5113 41.5972 21.4886C41.5983 21.443 41.5994 21.3975 41.5869 21.3481C41.5558 21.2251 41.4429 21.0894 41.2857 20.9961C37.4245 18.4642 33.561 15.9203 29.6943 13.3644C29.5171 13.2402 29.3119 13.17 29.1412 13.1751C25.3916 13.1242 21.6461 13.0671 17.9051 13.004C17.7975 12.9897 17.7139 13.0147 17.6685 13.0674C17.6198 13.1239 17.629 13.2243 17.638 13.3229L17.638 13.3229C17.6405 13.3499 17.643 13.3769 17.6442 13.4027C17.6548 13.6196 17.665 13.8364 17.675 14.0531C17.3923 14.0484 17.1097 14.0436 16.8271 14.0389C16.7196 14.0246 16.636 14.0495 16.5905 14.1022C16.5418 14.1588 16.551 14.2591 16.56 14.3577L16.56 14.3577C16.5625 14.3848 16.565 14.4117 16.5663 14.4376C16.5943 15.0144 16.62 15.5904 16.6456 16.1664L16.6456 16.1665V16.1665C16.7024 17.4387 16.7591 18.711 16.8409 19.9919C16.9887 22.6317 18.2834 25.5917 20.5344 28.4349C22.6145 31.1537 25.5317 33.6286 28.8305 35.4736C29.1968 35.6815 29.5856 35.8146 29.9437 35.8546C33.0113 36.2324 35.6682 35.7736 37.5289 34.5443C38.2142 34.1261 38.7974 33.6252 39.2734 33.0522ZM29.0948 33.9663C29.3632 34.128 29.6345 34.2855 29.9085 34.4387C30.2748 34.6467 30.6636 34.7798 31.0216 34.8197C34.0893 35.1975 36.7462 34.7388 38.6069 33.5095C38.841 33.3666 39.0633 33.214 39.2734 33.0522C40.3716 31.73 40.8985 30.0235 40.7892 28.0614L40.5193 22.5922C40.5181 22.569 40.5187 22.5462 40.5193 22.5234V22.5234C40.5204 22.4778 40.5215 22.4323 40.509 22.3829C40.4779 22.2599 40.3649 22.1242 40.2077 22.0309C40.0632 21.9362 39.9187 21.8414 39.7742 21.7466C39.774 21.7459 39.7738 21.7453 39.7736 21.7446C39.7419 21.642 39.6451 21.5313 39.5138 21.4566L38.7206 20.9352C38.4847 20.7801 38.2363 20.6593 37.9916 20.5766C36.4724 19.5789 34.9529 18.5793 33.4329 17.5778C33.266 17.3893 33.0575 17.2076 32.8103 17.0447L29.7341 15.018C29.6 14.9243 29.4469 14.8671 29.3127 14.8595C29.0806 14.7061 28.8485 14.5527 28.6163 14.3993C28.4392 14.275 28.234 14.2048 28.0632 14.21C24.5968 14.1629 21.134 14.1105 17.675 14.0531C17.6916 14.4127 17.7076 14.7721 17.7236 15.1316L17.7236 15.1317L17.7236 15.1317V15.1317C17.7803 16.4039 17.8371 17.6762 17.9189 18.9571C18.0472 21.2501 19.041 23.7847 20.7752 26.2745C20.8075 26.514 20.9689 26.7327 21.1323 26.9541L21.1323 26.9541C21.1661 26.9999 21.2 27.0458 21.2328 27.092C21.4213 27.3573 21.6191 27.6214 21.8259 27.8838C22.0008 28.1059 22.2226 28.2965 22.4646 28.4467C23.4416 29.5768 24.5601 30.6534 25.7849 31.6465C25.9203 31.8652 26.1258 32.0853 26.4019 32.2856C27.1771 32.8479 27.9912 33.367 28.8321 33.8341C28.9185 33.8832 29.0064 33.9274 29.0948 33.9663ZM37.7366 31.7052C37.3212 32.2274 36.8031 32.6813 36.1875 33.0564C34.6132 34.0935 32.3663 34.4787 29.7725 34.156C29.5545 34.1318 29.323 34.0667 29.0948 33.9663C27.9299 33.2646 26.8195 32.4854 25.7849 31.6465C25.4302 31.0735 25.5563 30.5101 26.1527 30.3373L26.6854 30.183C26.756 30.5285 27.0199 30.9171 27.4799 31.2507C28.255 31.813 29.0692 32.3322 29.91 32.7993C30.2195 32.9752 30.5481 33.0876 30.8505 33.1211C33.4443 33.4439 35.6912 33.0586 37.2655 32.0216C37.4295 31.9216 37.5866 31.8161 37.7366 31.7052ZM37.7366 31.7052C38.6132 30.6034 39.0324 29.1977 38.9441 27.5877C38.9257 27.2156 38.3235 26.8111 37.9493 26.9195L26.6854 30.183C26.6026 29.7776 26.7858 29.4314 27.2306 29.3025L39.0273 25.8847C39.4015 25.7763 40.0036 26.1808 40.022 26.5528C40.141 28.7226 39.3383 30.5212 37.7366 31.7052ZM39.7547 23.2652C39.8131 23.1511 39.8403 23.018 39.833 22.8701L39.7871 21.942C39.7861 21.9219 39.7865 21.9022 39.7869 21.8825C39.7877 21.8385 39.7886 21.7946 39.7742 21.7466C39.1801 21.3569 38.5859 20.9669 37.9916 20.5766C37.5859 20.4395 37.1905 20.4073 36.8791 20.4974L22.6034 24.6285C22.4799 24.6642 22.3752 24.7174 22.2907 24.785C21.0282 25.4143 20.7211 25.8737 20.7752 26.2745C21.0375 26.651 21.3167 27.0266 21.6124 27.4001C21.8827 27.7533 22.1671 28.1025 22.4646 28.4467C22.9773 28.7649 23.5804 28.9021 24.0187 28.7754L39.1796 24.0172C39.5549 23.9086 39.7641 23.6344 39.7547 23.2652ZM39.7547 23.2652C39.6626 23.4449 39.4931 23.5773 39.2588 23.645L25.0966 27.7406C24.4515 27.9271 23.4493 27.5418 22.9039 26.849C22.6971 26.5865 22.4993 26.3225 22.3108 26.0572C21.9386 25.5333 21.9606 25.0491 22.2907 24.785C22.3383 24.7612 22.3874 24.7372 22.4378 24.713L35.8011 21.5322C36.3003 21.3877 37.0156 21.5578 37.6426 21.97L38.4358 22.4915C38.5671 22.5662 38.6639 22.6769 38.6956 22.7794C38.7107 22.8282 38.7098 22.8728 38.7089 22.9173C38.7085 22.937 38.7081 22.9568 38.7091 22.9768L39.7538 23.2423C39.7542 23.25 39.7545 23.2576 39.7547 23.2652ZM19.591 14.7718C19.3387 14.9028 18.4691 15.8147 18.4819 15.9244L18.7213 20.7655C18.7518 21.2961 18.8369 21.8446 18.9756 22.4059C19.1687 23.1908 20.3575 23.8497 21.1015 23.6337L32.2626 20.3947L32.2959 20.385C32.723 20.2613 33.8873 19.9242 33.8823 19.5892C33.8995 19.296 33.9018 19.0472 33.8912 18.837C33.9813 18.4811 33.8171 18.0117 33.4329 17.5778C32.0599 16.6732 30.6865 15.7671 29.3127 14.8595C29.2979 14.8586 29.2832 14.8584 29.2689 14.8588C26.1036 14.811 22.9431 14.7624 19.7867 14.7124C19.6977 14.7039 19.6288 14.7266 19.591 14.7718ZM19.591 14.7718C19.5658 14.8019 19.5543 14.842 19.5599 14.8895L19.7992 19.7307C19.8298 20.2613 19.9149 20.8098 20.0535 21.3711C20.2467 22.1559 21.4354 22.8148 22.1795 22.5989L33.3405 19.3598C33.6498 19.2701 33.8298 19.08 33.8912 18.837C33.8232 17.4828 33.2216 17.7253 32.6286 17.9643C32.295 18.0988 31.964 18.2322 31.7323 18.0795L28.6561 16.0528C28.5072 15.9488 28.3347 15.8897 28.1909 15.8936C26.6056 15.8697 25.2554 15.597 23.9059 15.3244C22.5609 15.0527 21.2166 14.7812 19.641 14.7563C19.6294 14.7552 19.6124 14.7607 19.591 14.7718Z" fill="url(#paint4_linear_1_2)"/>
<path d="M44.0146 21.0324C44.0125 20.9715 44.0214 20.9142 44.0117 20.851C43.9875 20.6932 43.8438 20.5116 43.6379 20.3904C38.9661 17.3331 34.3053 14.2644 29.6557 11.1841C29.4423 11.0347 29.1953 10.9501 28.9898 10.9562C24.5002 10.8864 20.013 10.8132 15.5274 10.7363C15.4446 10.7349 15.355 10.7222 15.2783 10.7307C15.1867 10.7407 15.1193 10.781 15.0863 10.8433C15.043 10.925 15.0731 11.0534 15.08 11.1654C15.2191 13.4246 15.2978 15.6653 15.4433 17.9264C15.621 21.1097 17.1814 24.6788 19.8948 28.108C22.5186 31.4405 25.805 34.3096 29.9038 36.5935C30.3454 36.8442 30.8143 37.0045 31.2462 37.0528C34.9446 37.5099 38.1482 36.9592 40.3943 35.4806C43.132 33.8132 44.5229 31.0554 44.3367 27.6626L44.189 24.6733C44.1153 23.4559 44.0551 22.2409 44.0146 21.0324ZM41.8672 27.0265C42.0239 29.8389 40.8735 32.126 38.6069 33.5093C36.7462 34.7386 34.0893 35.1974 31.0216 34.8196C30.6636 34.7796 30.2748 34.6466 29.9085 34.4386C26.6096 32.5937 23.6925 30.1187 21.6124 27.3999C19.3614 24.5568 18.0666 21.5968 17.9189 18.957C17.8 17.0961 17.7341 15.2534 17.6442 13.4026C17.6384 13.2826 17.6064 13.1394 17.6685 13.0673C17.7139 13.0146 17.7975 12.9897 17.9051 13.004C21.6461 13.067 25.3916 13.1241 29.1412 13.175C29.312 13.1699 29.5171 13.2401 29.6943 13.3644C33.561 15.9202 37.4246 18.4641 41.2857 20.996C41.4429 21.0893 41.5559 21.225 41.587 21.348C41.6057 21.4221 41.5938 21.4875 41.5973 21.5573L41.8672 27.0265Z" fill="url(#paint5_linear_1_2)"/>
<path d="M39.5138 21.4565L38.7206 20.9351C38.0936 20.5229 37.3783 20.3528 36.8791 20.4973L22.6034 24.6283C21.9977 24.8036 21.8433 25.399 22.3108 26.0571C22.4993 26.3223 22.6971 26.5864 22.9039 26.8488C23.4494 27.5417 24.4515 27.927 25.0967 27.7404L39.2588 23.6449C39.6418 23.5342 39.8518 23.2507 39.833 22.87L39.7871 21.9419C39.7839 21.8764 39.7953 21.8149 39.7736 21.7445C39.7419 21.6419 39.6451 21.5312 39.5138 21.4565Z" fill="url(#paint6_linear_1_2)"/>
<path d="M29.9101 32.7991C30.2195 32.975 30.5481 33.0875 30.8505 33.121C33.4443 33.4437 35.6912 33.0585 37.2655 32.0214C39.1799 30.8549 40.1522 28.9257 40.0221 26.5527C40.0037 26.1806 39.4015 25.7762 39.0273 25.8846L27.2307 29.3024C26.4067 29.5411 26.4803 30.5255 27.4799 31.2506C28.255 31.8129 29.0692 32.332 29.9101 32.7991Z" fill="url(#paint7_linear_1_2)"/>
<path d="M29.7341 15.0179C29.5852 14.9138 29.4127 14.8548 29.2689 14.8587C26.1036 14.8109 22.9431 14.7623 19.7867 14.7123C19.6386 14.6981 19.546 14.7705 19.5599 14.8894L19.7992 19.7306C19.8298 20.2612 19.9149 20.8097 20.0535 21.371C20.2467 22.1558 21.4354 22.8147 22.1795 22.5988L33.3406 19.3597C34.2997 19.0814 34.015 17.8382 32.8103 17.0446L29.7341 15.0179Z" fill="url(#paint8_linear_1_2)"/>
<defs>
<filter id="filter0_b_1_2" x="-10.1345" y="-17.1706" width="77.0667" height="84.5906" filterUnits="userSpaceOnUse" color-interpolation-filters="sRGB">
<feFlood flood-opacity="0" result="BackgroundImageFix"/>
<feGaussianBlur in="BackgroundImageFix" stdDeviation="9.05357"/>
<feComposite in2="SourceAlpha" operator="in" result="effect1_backgroundBlur_1_2"/>
<feBlend mode="normal" in="SourceGraphic" in2="effect1_backgroundBlur_1_2" result="shape"/>
</filter>
<filter id="filter1_b_1_2" x="-10.1345" y="-17.1706" width="77.0667" height="84.5906" filterUnits="userSpaceOnUse" color-interpolation-filters="sRGB">
<feFlood flood-opacity="0" result="BackgroundImageFix"/>
<feGaussianBlur in="BackgroundImageFix" stdDeviation="9.05357"/>
<feComposite in2="SourceAlpha" operator="in" result="effect1_backgroundBlur_1_2"/>
<feBlend mode="normal" in="SourceGraphic" in2="effect1_backgroundBlur_1_2" result="shape"/>
</filter>
<linearGradient id="paint0_linear_1_2" x1="4.47334" y1="55.8129" x2="42.0074" y2="11.9353" gradientUnits="userSpaceOnUse">
<stop offset="0.320833" stop-color="#B9CBEF"/>
<stop offset="0.58125" stop-color="#90A6D3"/>
<stop offset="0.89375" stop-color="#2D56AB" stop-opacity="0.79"/>
</linearGradient>
<linearGradient id="paint1_linear_1_2" x1="-7.42322" y1="9.51623" x2="44.6728" y2="59.5626" gradientUnits="userSpaceOnUse">
<stop stop-color="#D2E1FF"/>
<stop offset="0.35896" stop-color="#3866C5"/>
<stop offset="0.683604" stop-color="#073EAF"/>
<stop offset="1" stop-color="#6580B9"/>
</linearGradient>
<linearGradient id="paint2_linear_1_2" x1="10.4928" y1="42.8403" x2="46.12" y2="7.09542" gradientUnits="userSpaceOnUse">
<stop stop-color="#BBD1FF" stop-opacity="0"/>
<stop offset="0.614021" stop-color="#003BB5" stop-opacity="0.9405"/>
<stop offset="1" stop-color="#003BB5" stop-opacity="0.79"/>
</linearGradient>
<linearGradient id="paint3_linear_1_2" x1="7.8991" y1="44.6512" x2="48.8478" y2="11.6061" gradientUnits="userSpaceOnUse">
<stop offset="0.180663" stop-color="white" stop-opacity="0.35"/>
<stop offset="0.533255" stop-color="white" stop-opacity="0"/>
</linearGradient>
<linearGradient id="paint4_linear_1_2" x1="12.5691" y1="-9.52403" x2="13.5959" y2="44.5036" gradientUnits="userSpaceOnUse">
<stop offset="0.301696" stop-color="#BDCEF1" stop-opacity="0"/>
<stop offset="0.993284" stop-color="#7FB8C0" stop-opacity="0.63"/>
</linearGradient>
<linearGradient id="paint5_linear_1_2" x1="35.2295" y1="46.0001" x2="0.945121" y2="18.4841" gradientUnits="userSpaceOnUse">
<stop stop-color="white"/>
<stop offset="0.644664" stop-color="white" stop-opacity="0.57"/>
</linearGradient>
<linearGradient id="paint6_linear_1_2" x1="35.2295" y1="46.0001" x2="0.945121" y2="18.4841" gradientUnits="userSpaceOnUse">
<stop stop-color="white"/>
<stop offset="0.644664" stop-color="white" stop-opacity="0.57"/>
</linearGradient>
<linearGradient id="paint7_linear_1_2" x1="35.2295" y1="46.0001" x2="0.945121" y2="18.4841" gradientUnits="userSpaceOnUse">
<stop stop-color="white"/>
<stop offset="0.644664" stop-color="white" stop-opacity="0.57"/>
</linearGradient>
<linearGradient id="paint8_linear_1_2" x1="35.2295" y1="46.0001" x2="0.945121" y2="18.4841" gradientUnits="userSpaceOnUse">
<stop stop-color="white"/>
<stop offset="0.644664" stop-color="white" stop-opacity="0.57"/>
</linearGradient>
</defs>
</svg>
