<svg width="20" height="20" viewBox="0 0 20 20" fill="none" xmlns="http://www.w3.org/2000/svg">
<path d="M10 16.6667H4.16667C3.94565 16.6667 3.73369 16.5789 3.57741 16.4226C3.42113 16.2663 3.33333 16.0543 3.33333 15.8333V4.16667C3.33333 3.94565 3.42113 3.73369 3.57741 3.57741C3.73369 3.42113 3.94565 3.33333 4.16667 3.33333H8.33333V5.83333C8.33333 6.49637 8.59673 7.13226 9.06557 7.6011C9.53441 8.06994 10.1703 8.33333 10.8333 8.33333H13.3333V9.16667C13.3333 9.38768 13.4211 9.59964 13.5774 9.75592C13.7337 9.9122 13.9457 10 14.1667 10C14.3877 10 14.5996 9.9122 14.7559 9.75592C14.9122 9.59964 15 9.38768 15 9.16667V7.5C15 7.5 15 7.5 15 7.45C14.9913 7.37345 14.9746 7.29803 14.95 7.225V7.15C14.9099 7.06432 14.8565 6.98555 14.7917 6.91667V6.91667L9.79167 1.91667C9.72278 1.85185 9.64402 1.7984 9.55833 1.75833C9.53346 1.7548 9.50821 1.7548 9.48333 1.75833C9.39868 1.70978 9.30519 1.67862 9.20833 1.66667H4.16667C3.50363 1.66667 2.86774 1.93006 2.3989 2.3989C1.93006 2.86774 1.66667 3.50363 1.66667 4.16667V15.8333C1.66667 16.4964 1.93006 17.1323 2.3989 17.6011C2.86774 18.0699 3.50363 18.3333 4.16667 18.3333H10C10.221 18.3333 10.433 18.2455 10.5893 18.0893C10.7455 17.933 10.8333 17.721 10.8333 17.5C10.8333 17.279 10.7455 17.067 10.5893 16.9107C10.433 16.7545 10.221 16.6667 10 16.6667ZM10 4.50833L12.1583 6.66667H10.8333C10.6123 6.66667 10.4004 6.57887 10.2441 6.42259C10.0878 6.26631 10 6.05435 10 5.83333V4.50833ZM5.83333 6.66667C5.61232 6.66667 5.40036 6.75446 5.24408 6.91074C5.0878 7.06702 5 7.27899 5 7.5C5 7.72101 5.0878 7.93298 5.24408 8.08926C5.40036 8.24554 5.61232 8.33333 5.83333 8.33333H6.66667C6.88768 8.33333 7.09964 8.24554 7.25592 8.08926C7.4122 7.93298 7.5 7.72101 7.5 7.5C7.5 7.27899 7.4122 7.06702 7.25592 6.91074C7.09964 6.75446 6.88768 6.66667 6.66667 6.66667H5.83333ZM18.0917 16.9083L17.1167 15.9417C17.4283 15.3977 17.553 14.7666 17.4718 14.145C17.3905 13.5234 17.1077 12.9455 16.6667 12.5V12.5C16.2609 12.0797 15.7379 11.7914 15.1659 11.6726C14.5938 11.5538 13.9993 11.6101 13.4597 11.834C12.9201 12.0579 12.4605 12.4392 12.1406 12.9281C11.8208 13.417 11.6557 13.9909 11.6667 14.575C11.6638 15.0777 11.7924 15.5723 12.0397 16.0099C12.287 16.4476 12.6444 16.8129 13.0764 17.0698C13.5085 17.3267 14.0002 17.4662 14.5028 17.4744C15.0054 17.4826 15.5014 17.3593 15.9417 17.1167L16.9083 18.0917C16.9858 18.1698 17.078 18.2318 17.1795 18.2741C17.2811 18.3164 17.39 18.3382 17.5 18.3382C17.61 18.3382 17.7189 18.3164 17.8205 18.2741C17.922 18.2318 18.0142 18.1698 18.0917 18.0917C18.1698 18.0142 18.2318 17.922 18.2741 17.8205C18.3164 17.7189 18.3382 17.61 18.3382 17.5C18.3382 17.39 18.3164 17.2811 18.2741 17.1795C18.2318 17.078 18.1698 16.9858 18.0917 16.9083V16.9083ZM15.45 15.45C15.212 15.6738 14.8976 15.7984 14.5708 15.7984C14.2441 15.7984 13.9297 15.6738 13.6917 15.45C13.4623 15.2165 13.3336 14.9023 13.3333 14.575C13.3316 14.4106 13.3632 14.2476 13.4262 14.0958C13.4892 13.944 13.5824 13.8065 13.7 13.6917C13.9222 13.4707 14.2201 13.3426 14.5333 13.3333C14.7018 13.323 14.8706 13.3476 15.0291 13.4055C15.1877 13.4635 15.3325 13.5536 15.4546 13.6702C15.5766 13.7868 15.6733 13.9273 15.7385 14.083C15.8037 14.2387 15.8359 14.4062 15.8333 14.575C15.8264 14.9059 15.6886 15.2206 15.45 15.45V15.45ZM10.8333 10H5.83333C5.61232 10 5.40036 10.0878 5.24408 10.2441C5.0878 10.4004 5 10.6123 5 10.8333C5 11.0543 5.0878 11.2663 5.24408 11.4226C5.40036 11.5789 5.61232 11.6667 5.83333 11.6667H10.8333C11.0543 11.6667 11.2663 11.5789 11.4226 11.4226C11.5789 11.2663 11.6667 11.0543 11.6667 10.8333C11.6667 10.6123 11.5789 10.4004 11.4226 10.2441C11.2663 10.0878 11.0543 10 10.8333 10ZM9.16667 15C9.38768 15 9.59964 14.9122 9.75592 14.7559C9.9122 14.5996 10 14.3877 10 14.1667C10 13.9457 9.9122 13.7337 9.75592 13.5774C9.59964 13.4211 9.38768 13.3333 9.16667 13.3333H5.83333C5.61232 13.3333 5.40036 13.4211 5.24408 13.5774C5.0878 13.7337 5 13.9457 5 14.1667C5 14.3877 5.0878 14.5996 5.24408 14.7559C5.40036 14.9122 5.61232 15 5.83333 15H9.16667Z" fill="#181829"/>
</svg>
