<svg width="20" height="20" viewBox="0 0 20 20" fill="none" xmlns="http://www.w3.org/2000/svg">
<path fill-rule="evenodd" clip-rule="evenodd" d="M2.55832 8.33231C2.55832 7.9181 2.89411 7.58231 3.30832 7.58231H16.6417C17.0559 7.58231 17.3917 7.9181 17.3917 8.33231V14.999C17.3917 16.2905 17.1861 17.3902 16.4428 18.1335C15.6996 18.8768 14.5999 19.0823 13.3083 19.0823H6.64166C5.35011 19.0823 4.25041 18.8768 3.50716 18.1335C2.76391 17.3902 2.55832 16.2905 2.55832 14.999C2.55832 14.5848 2.89411 14.249 3.30832 14.249C3.72254 14.249 4.05832 14.5848 4.05832 14.999C4.05832 16.2075 4.26941 16.7744 4.56782 17.0728C4.86623 17.3712 5.43321 17.5823 6.64166 17.5823H13.3083C14.5168 17.5823 15.0838 17.3712 15.3822 17.0728C15.6806 16.7744 15.8917 16.2075 15.8917 14.999V9.08231H4.05832V11.5323C4.05832 11.9465 3.72254 12.2823 3.30832 12.2823C2.89411 12.2823 2.55832 11.9465 2.55832 11.5323V8.33231Z" fill="white"/>
<path fill-rule="evenodd" clip-rule="evenodd" d="M3.00949 5.14154C2.91466 5.25287 2.83331 5.46327 2.83331 5.83231V6.66565C2.83331 7.03469 2.91466 7.24509 3.00949 7.35642C3.08471 7.44474 3.26285 7.58231 3.74997 7.58231H16.25C16.7032 7.58231 16.8903 7.44972 16.9775 7.34968C17.0811 7.23103 17.1667 7.01637 17.1667 6.66565V5.83231C17.1667 5.48159 17.0811 5.26693 16.9775 5.14828C16.8903 5.04824 16.7032 4.91565 16.25 4.91565H3.74997C3.26285 4.91565 3.08471 5.05321 3.00949 5.14154ZM1.86755 4.16892C2.3069 3.65308 2.9621 3.41565 3.74997 3.41565H16.25C17.0217 3.41565 17.6681 3.65805 18.1079 4.16218C18.5314 4.6477 18.6667 5.26637 18.6667 5.83231V6.66565C18.6667 7.23159 18.5314 7.85026 18.1079 8.33578C17.6681 8.83991 17.0217 9.08231 16.25 9.08231H3.74997C2.9621 9.08231 2.3069 8.84488 1.86755 8.32904C1.44779 7.8362 1.33331 7.21327 1.33331 6.66565V5.83231C1.33331 5.28469 1.44779 4.66176 1.86755 4.16892Z" fill="white"/>
<path fill-rule="evenodd" clip-rule="evenodd" d="M6.87082 2.41772C6.85426 2.41772 6.84437 2.42359 6.83865 2.4293L5.85232 3.41564H7.88933L6.90299 2.4293C6.89728 2.42359 6.88739 2.41772 6.87082 2.41772ZM5.77799 1.36864C6.37922 0.767418 7.36243 0.767418 7.96365 1.36864L10.2303 3.63531C10.4448 3.8498 10.509 4.17239 10.3929 4.45265C10.2768 4.7329 10.0033 4.91564 9.69999 4.91564H5.09999C4.89008 4.91564 4.68978 4.82767 4.54775 4.67311C3.99222 4.06856 4.01074 3.13589 4.59466 2.55197L5.77799 1.36864Z" fill="white"/>
<path fill-rule="evenodd" clip-rule="evenodd" d="M13.1208 2.41772C13.1043 2.41772 13.0944 2.42359 13.0887 2.4293L12.1023 3.41564H14.1393L13.153 2.4293C13.1473 2.42359 13.1374 2.41772 13.1208 2.41772ZM12.028 1.36864C12.6292 0.767418 13.6124 0.767418 14.2137 1.36864L15.397 2.55197C15.9809 3.13589 15.9994 4.06856 15.4439 4.67311C15.3019 4.82767 15.1016 4.91564 14.8917 4.91564H10.2917C9.98828 4.91564 9.71478 4.7329 9.59878 4.45265C9.48265 4.17239 9.54678 3.8498 9.76128 3.63531L12.028 1.36864Z" fill="white"/>
<path fill-rule="evenodd" clip-rule="evenodd" d="M6.69998 8.33231C6.69998 7.9181 7.03576 7.58231 7.44998 7.58231H12.475C12.8892 7.58231 13.225 7.9181 13.225 8.33231V12.6073C13.225 13.877 11.8124 14.6198 10.7673 13.923L10.7641 13.9209L10.0249 13.4226C10.0057 13.4101 9.97208 13.4038 9.93398 13.4277L9.14677 13.9469C8.09925 14.6192 6.69998 13.8873 6.69998 12.6157V8.33231ZM8.19998 9.08231V12.6157C8.19998 12.6412 8.20606 12.654 8.21059 12.6613C8.21648 12.6708 8.22681 12.6815 8.24233 12.6899C8.25792 12.6983 8.27398 12.7017 8.2877 12.7014C8.29863 12.7012 8.31366 12.6986 8.33422 12.6859L9.11752 12.1693C9.64498 11.828 10.3271 11.8212 10.8577 12.175L10.8609 12.1771L11.6003 12.6756C11.6183 12.6874 11.6307 12.6894 11.6398 12.6897C11.6516 12.6901 11.667 12.6872 11.6828 12.6788C11.6985 12.6704 11.709 12.6595 11.7149 12.6501C11.7193 12.643 11.725 12.6312 11.725 12.6073V9.08231H8.19998Z" fill="white"/>
</svg>
