<svg width="24" height="25" viewBox="0 0 24 25" fill="none" xmlns="http://www.w3.org/2000/svg">
<path d="M19.9965 5.85029C20.0184 5.70571 19.9363 5.56588 19.8017 5.51815C17.2603 4.3724 14.7253 3.21476 12.197 2.04501C12.0811 1.985 11.9447 1.985 11.8289 2.04501C9.28356 3.20808 6.73964 4.36779 4.19673 5.52415C4.06906 5.55904 3.98595 5.68547 4.00197 5.82029C4.01949 7.60089 4.00007 9.38342 4.01949 11.1639C4.0309 13.6171 4.80896 16.0016 6.23906 17.9662C7.6215 19.8788 9.38933 21.2493 11.6301 21.9415C11.8715 22.0196 12.1306 22.0195 12.3721 21.9413C14.4386 21.3059 16.2549 20.0118 17.5587 18.2461C19.1442 16.2 20.0028 13.6592 19.9925 11.0437V8.73488C19.9847 7.7746 19.9848 6.81254 19.9965 5.85029ZM18.6218 11.208C18.6317 13.3754 17.9214 15.4817 16.6087 17.178C15.5285 18.6442 14.022 19.7191 12.3079 20.2471C12.1077 20.312 11.8929 20.312 11.6927 20.2471C9.88941 19.6847 8.31818 18.5247 7.22436 16.948C6.03791 15.3195 5.39227 13.3421 5.38261 11.3079C5.36699 9.83138 5.38261 8.35488 5.38261 6.87853C5.3697 6.76842 5.43652 6.66515 5.54028 6.63459C7.64168 5.67819 9.74579 4.71583 11.8524 3.74757C11.9485 3.69761 12.0619 3.69761 12.1581 3.74757C14.2608 4.71583 16.3622 5.67555 18.4625 6.62648C18.5737 6.66667 18.6411 6.78292 18.6221 6.90266L18.6218 11.208Z" fill="#37C6AB"/>
<path d="M17.4536 7.46476L16.4645 7.01454L7.26875 15.0172C7.46989 15.4199 7.70293 15.8046 7.96574 16.1677C8.13741 16.4053 8.32062 16.6336 8.51483 16.8518L17.5937 8.95308V7.69666C17.6089 7.59436 17.5495 7.49602 17.4536 7.46476Z" fill="#37C6AB"/>
<path d="M11.7392 18.9586C11.9082 19.0136 12.0898 19.0136 12.2589 18.9586C13.7082 18.5147 14.982 17.6079 15.8959 16.3697C17.0046 14.9385 17.6049 13.1613 17.5977 11.332V10.6038L9.42029 17.724C10.1109 18.2817 10.8974 18.7007 11.7392 18.9586Z" fill="#37C6AB"/>
<path d="M12.1345 5.03601C12.0537 4.99428 11.9583 4.99428 11.8774 5.03601C10.0992 5.8496 8.32376 6.66127 6.55061 7.47083C6.46777 7.49944 6.41371 7.58122 6.41819 7.67096V11.4101C6.42064 11.8187 6.45323 12.2267 6.51557 12.6305C6.57655 13.0274 6.66564 13.4193 6.7823 13.8027L15.2225 6.44811L12.1345 5.03601Z" fill="#37C6AB"/>
</svg>
