<svg width="34" height="42" viewBox="0 0 34 42" fill="none" xmlns="http://www.w3.org/2000/svg">
<path d="M33.9925 8.08561C34.039 7.78199 33.8647 7.48834 33.5787 7.38811C28.1781 4.98204 22.7912 2.551 17.4185 0.0945151C17.1724 -0.031505 16.8823 -0.031505 16.6364 0.0945151C11.4752 2.42508 6.31687 4.74923 1.1605 7.06696C0.666217 7.28913 -0.0606738 7.48457 0.00404075 8.02261V8.02261C0.0412705 11.7619 9.6858e-08 15.5052 0.0412702 19.2442C0.0655123 24.396 1.7189 29.4033 4.75788 33.529C7.69557 37.5455 11.4522 40.4234 16.214 41.8771C16.7268 42.0412 17.2775 42.0409 17.7906 41.8768C22.182 40.5424 26.0417 37.8248 28.8123 34.1169C32.1814 29.82 34.006 24.4844 33.984 18.9918V14.1433C33.9676 12.1267 33.9677 10.1063 33.9925 8.08561ZM31.0713 19.3368C31.0924 23.8884 29.583 28.3116 26.7934 31.8738C24.4979 34.9528 21.2968 37.21 17.6543 38.319C17.2289 38.4552 16.7723 38.4552 16.3469 38.319C12.5149 37.1379 9.17603 34.7019 6.85164 31.3908C4.33042 27.971 2.95844 23.8185 2.9379 19.5466C2.90471 16.4459 2.9379 13.3453 2.9379 10.2449C2.91048 10.0137 3.05247 9.79681 3.27297 9.73263C7.73845 7.7242 12.2097 5.70324 16.6862 3.6699C16.8905 3.56499 17.1315 3.56499 17.3358 3.6699C21.8042 5.70324 26.2696 7.71865 30.7328 9.7156V9.7156C31.1896 9.87872 31.0719 10.5393 31.0719 11.0243L31.0713 19.3368Z" fill="#37C6AB" fill-opacity="0.8"/>
<path fill-rule="evenodd" clip-rule="evenodd" d="M14.9993 22.1809L23.5851 13.5865L26.4149 16.4135L15.0007 27.8391L8.58578 21.4242L11.4142 18.5958L14.9993 22.1809Z" fill="#37C6AB"/>
</svg>
