<svg width="44" height="52" viewBox="0 0 44 52" fill="none" xmlns="http://www.w3.org/2000/svg"><path fill-rule="evenodd" clip-rule="evenodd" d="M43.4548 9.14721C43.8249 9.27131 44.0505 9.63488 43.9903 10.0108C43.9582 12.5127 43.958 15.014 43.9793 17.5108V23.5137C44.0077 30.3141 41.6466 36.9201 37.2865 42.2401C33.7011 46.8309 28.7062 50.1956 23.0232 51.8476C22.3592 52.0508 21.6466 52.0511 20.9829 51.848C14.8207 50.0482 9.95912 46.485 6.15742 41.5122C2.22465 36.4043 0.0849751 30.2047 0.0536032 23.8262C0.0262291 21.4535 0.026916 19.0794 0.0276029 16.7053C0.0282562 14.4474 0.0289094 12.1895 0.00542409 9.93278C-0.0386431 9.58226 0.189925 9.25353 0.541 9.16281C7.53401 6.15628 14.5298 3.14102 21.5296 0.117019C21.8478 -0.0390064 22.2231 -0.0390064 22.5417 0.117019C29.4946 3.15839 36.4658 6.16826 43.4548 9.14721ZM31.6435 17.3488C32.0186 16.9603 32.0144 16.3544 31.634 15.9708L29.4425 13.7609C29.0327 13.3476 28.3496 13.3535 27.9474 13.7738L22.0409 19.946L15.7986 14.2575C15.3987 13.8931 14.7751 13.8972 14.3803 14.2667L12.1056 16.3958C11.6802 16.794 11.6863 17.4576 12.1189 17.8483L18.5176 23.6278L17.6193 24.5666L12.6274 29.6628C12.2472 30.0509 12.2495 30.6612 12.6325 31.0467L14.8158 33.2439C15.2245 33.6553 15.9045 33.6505 16.3071 33.2335L22.2908 27.0359L23.228 27.8824L28.4735 32.7321C28.8731 33.1015 29.5012 33.0993 29.898 32.7272L32.1596 30.606C32.583 30.2089 32.5781 29.5484 32.1489 29.1572L25.8152 23.3854L31.6435 17.3488Z" fill="white"/></svg>