<svg width="25" height="24" viewBox="0 0 25 24" fill="none" xmlns="http://www.w3.org/2000/svg">
<path d="M20.4965 5.55024C20.5184 5.40566 20.4363 5.26583 20.3017 5.2181C17.7603 4.07235 15.2253 2.91471 12.697 1.74496C12.5811 1.68495 12.4447 1.68495 12.3289 1.74496C9.78356 2.90803 7.23964 4.06774 4.69673 5.2241C4.56906 5.25899 4.48595 5.38543 4.50197 5.52024C4.51949 7.30084 4.50007 9.08337 4.51949 10.8638C4.5309 13.3171 5.30896 15.7015 6.73906 17.6661C8.1215 19.5787 9.88933 20.9492 12.1301 21.6414C12.3715 21.7196 12.6306 21.7194 12.8721 21.6413C14.9386 21.0059 16.7549 19.7118 18.0587 17.9461C19.6442 15.8999 20.5028 13.3592 20.4925 10.7437V8.43484C20.4847 7.47455 20.4848 6.5125 20.4965 5.55024ZM19.1218 10.9079C19.1317 13.0754 18.4214 15.1817 17.1087 16.878C16.0285 18.3441 14.522 19.419 12.8079 19.9471C12.6077 20.012 12.3929 20.012 12.1927 19.9471C10.3894 19.3847 8.81818 18.2247 7.72436 16.648C6.53791 15.0195 5.89227 13.0421 5.88261 11.0078C5.86699 9.53134 5.88261 8.05484 5.88261 6.57848C5.8697 6.46837 5.93652 6.3651 6.04028 6.33454C8.14168 5.37814 10.2458 4.41578 12.3524 3.44752C12.4485 3.39756 12.5619 3.39756 12.6581 3.44752C14.7608 4.41578 16.8622 5.3755 18.9625 6.32643C19.0737 6.36662 19.1411 6.48287 19.1221 6.60261L19.1218 10.9079Z" fill="white"/>
<path d="M17.9536 7.16471L16.9645 6.71449L7.76875 14.7172C7.96989 15.1198 8.20293 15.5046 8.46574 15.8677C8.63741 16.1052 8.82062 16.3335 9.01483 16.5518L18.0937 8.65304V7.39661C18.1089 7.29432 18.0495 7.19597 17.9536 7.16471Z" fill="white"/>
<path d="M12.2392 18.6586C12.4082 18.7136 12.5898 18.7136 12.7589 18.6586C14.2082 18.2147 15.482 17.3078 16.3959 16.0697C17.5046 14.6384 18.1049 12.8613 18.0977 11.0319V10.3037L9.92029 17.424C10.6109 17.9816 11.3974 18.4007 12.2392 18.6586Z" fill="white"/>
<path d="M12.6345 4.73596C12.5537 4.69423 12.4583 4.69423 12.3774 4.73596C10.5992 5.54956 8.82376 6.36122 7.05061 7.17078C6.96777 7.19939 6.91371 7.28117 6.91819 7.37091V11.11C6.92064 11.5187 6.95323 11.9267 7.01557 12.3304C7.07655 12.7273 7.16564 13.1192 7.28231 13.5027L15.7225 6.14807L12.6345 4.73596Z" fill="white"/>
</svg>
