<svg width="44" height="52" viewBox="0 0 44 52" fill="none" xmlns="http://www.w3.org/2000/svg">
<g clip-path="url(#clip0_3_14)">
<path d="M43.9903 10.0108C44.0505 9.6349 43.8249 9.27131 43.4548 9.14721C36.4658 6.16827 29.4946 3.15839 22.5417 0.117019C22.2231 -0.0390062 21.8478 -0.0390062 21.5296 0.117019C14.5298 3.14102 7.53401 6.15628 0.541 9.16282C0.189925 9.25353 -0.0386431 9.5823 0.00542409 9.9328C0.0536035 14.5624 0.000195034 19.197 0.0536032 23.8262C0.0849751 30.2047 2.22465 36.4043 6.15742 41.5122C9.95912 46.485 14.8207 50.0482 20.9829 51.848C21.6466 52.0512 22.3592 52.0508 23.0232 51.8476C28.7062 50.1956 33.7011 46.8309 37.2865 42.2401C41.6466 36.9201 44.0077 30.3141 43.9793 23.5137V17.5108C43.958 15.014 43.9582 12.5127 43.9903 10.0108ZM40.21 23.9409C40.2372 29.5763 38.2839 35.0526 34.6739 39.463C31.7032 43.275 27.5606 46.0697 22.8468 47.4427C22.2963 47.6114 21.7054 47.6114 21.1549 47.4427C16.1959 45.9804 11.875 42.9644 8.86698 38.865C5.60425 34.6309 3.82874 29.4897 3.80216 24.2006C3.75921 20.3617 3.80216 16.5228 3.80216 12.6842C3.76668 12.3979 3.95044 12.1294 4.23578 12.05C10.0146 9.5633 15.8009 7.06118 21.594 4.54371C21.8584 4.41381 22.1703 4.41381 22.4347 4.54371C28.2173 7.06118 33.996 9.5565 39.7719 12.0289C40.0778 12.1334 40.263 12.4356 40.2107 12.747L40.21 23.9409Z" fill="white"/>
<path d="M36.9975 14.2082L34.2775 13.0376L8.98926 33.8448C9.54239 34.8916 10.1833 35.8919 10.906 36.8361C11.3781 37.4536 11.8819 38.0472 12.416 38.6147L37.3829 18.0779V14.8112C37.4248 14.5452 37.2612 14.2895 36.9975 14.2082Z" fill="white"/>
<path d="M21.2831 44.0924C21.7481 44.2354 22.2475 44.2354 22.7125 44.0924C26.6978 42.9382 30.2011 40.5804 32.7144 37.3613C35.7631 33.6399 37.4138 29.0194 37.3941 24.263V22.3696L14.9062 40.8824C16.8053 42.3323 18.9682 43.4219 21.2831 44.0924Z" fill="white"/>
<path d="M22.3699 7.89387C22.1477 7.78538 21.8855 7.78538 21.6629 7.89387C16.7728 10.0092 11.8904 12.1196 7.01428 14.2244C6.78645 14.2988 6.63781 14.5114 6.65013 14.7447V24.4665C6.65685 25.529 6.74649 26.5898 6.91792 27.6396C7.08561 28.6715 7.33062 29.6904 7.65144 30.6874L30.862 11.5653L22.3699 7.89387Z" fill="white"/>
</g>
<defs>
<clipPath id="clip0_3_14">
<rect width="44" height="52" fill="white"/>
</clipPath>
</defs>
</svg>