<svg width="16" height="16" viewBox="0 0 16 16" fill="none" xmlns="http://www.w3.org/2000/svg">
<path fill-rule="evenodd" clip-rule="evenodd" d="M3.33333 3.33334C2.22876 3.33334 1.33333 4.22877 1.33333 5.33334V12C1.33333 13.1046 2.22876 14 3.33333 14H12.6667C13.7712 14 14.6667 13.1046 14.6667 12V5.33334C14.6667 4.22877 13.7712 3.33334 12.6667 3.33334H10.6667V4.66668H12.6667C13.0349 4.66668 13.3333 4.96515 13.3333 5.33334V12C13.3333 12.3682 13.0349 12.6667 12.6667 12.6667H3.33333C2.96514 12.6667 2.66667 12.3682 2.66667 12V5.33334C2.66667 4.96515 2.96514 4.66668 3.33333 4.66668H5.33333V3.33334H3.33333Z" fill="white"/>
<path fill-rule="evenodd" clip-rule="evenodd" d="M12 8.00001H8V8.66668H12V8.00001Z" fill="white"/>
<path fill-rule="evenodd" clip-rule="evenodd" d="M12 9.33334H8V10H12V9.33334Z" fill="white"/>
<path d="M7.33333 9.00001C7.33333 9.92049 6.58714 10.6667 5.66667 10.6667C4.74619 10.6667 4 9.92049 4 9.00001C4 8.07954 4.74619 7.33334 5.66667 7.33334C6.58714 7.33334 7.33333 8.07954 7.33333 9.00001Z" fill="white"/>
<path fill-rule="evenodd" clip-rule="evenodd" d="M8.66667 2.66668H7.33333V4.66668H8.66667V2.66668ZM7.33333 1.33334C6.59695 1.33334 6 1.9303 6 2.66668V4.66668C6 5.40306 6.59695 6.00001 7.33333 6.00001H8.66667C9.40305 6.00001 10 5.40306 10 4.66668V2.66668C10 1.9303 9.40305 1.33334 8.66667 1.33334H7.33333Z" fill="white"/>
</svg>
