<svg width="24" height="24" viewBox="0 0 24 24" fill="none" xmlns="http://www.w3.org/2000/svg">
<g clip-path="url(#clip0_79_10636)">
<path d="M12 24C18.6274 24 24 18.6274 24 12C24 5.37258 18.6274 0 12 0C5.37258 0 0 5.37258 0 12C0 18.6274 5.37258 24 12 24Z" fill="url(#paint0_radial_79_10636)"/>
<path d="M12.0001 9.91731C10.8532 9.91731 9.91726 10.8533 9.91726 12.0001C9.91726 13.147 10.8532 14.0829 12.0001 14.0829C13.1469 14.0829 14.0829 13.147 14.0829 12.0001C14.0829 10.8533 13.1469 9.91731 12.0001 9.91731ZM18.2469 12.0001C18.2469 11.1376 18.2548 10.2829 18.2063 9.422C18.1579 8.422 17.9298 7.5345 17.1985 6.80325C16.4657 6.07044 15.5798 5.84388 14.5798 5.79544C13.7173 5.747 12.8626 5.75481 12.0016 5.75481C11.1391 5.75481 10.2844 5.747 9.42351 5.79544C8.42351 5.84388 7.53601 6.072 6.80476 6.80325C6.07195 7.53606 5.84539 8.422 5.79695 9.422C5.74851 10.2845 5.75632 11.1392 5.75632 12.0001C5.75632 12.8611 5.74851 13.7173 5.79695 14.5782C5.84539 15.5782 6.07351 16.4657 6.80476 17.197C7.53757 17.9298 8.42351 18.1564 9.42351 18.2048C10.286 18.2533 11.1407 18.2454 12.0016 18.2454C12.8641 18.2454 13.7188 18.2533 14.5798 18.2048C15.5798 18.1564 16.4673 17.9282 17.1985 17.197C17.9313 16.4642 18.1579 15.5782 18.2063 14.5782C18.2563 13.7173 18.2469 12.8626 18.2469 12.0001ZM12.0001 15.2048C10.2266 15.2048 8.79539 13.7736 8.79539 12.0001C8.79539 10.2267 10.2266 8.79544 12.0001 8.79544C13.7735 8.79544 15.2048 10.2267 15.2048 12.0001C15.2048 13.7736 13.7735 15.2048 12.0001 15.2048ZM15.336 9.41263C14.9219 9.41263 14.5876 9.07825 14.5876 8.66419C14.5876 8.25013 14.9219 7.91575 15.336 7.91575C15.7501 7.91575 16.0844 8.25013 16.0844 8.66419C16.0846 8.76251 16.0653 8.85989 16.0277 8.95075C15.9902 9.04161 15.935 9.12417 15.8655 9.19369C15.796 9.26321 15.7134 9.31834 15.6226 9.35591C15.5317 9.39347 15.4343 9.41275 15.336 9.41263Z" fill="white"/>
</g>
<defs>
<radialGradient id="paint0_radial_79_10636" cx="0" cy="0" r="1" gradientUnits="userSpaceOnUse" gradientTransform="translate(6.37503 25.8485) rotate(-90) scale(23.7858)">
<stop stop-color="#FFDD55"/>
<stop offset="0.1" stop-color="#FFDD55"/>
<stop offset="0.5" stop-color="#FF543E"/>
<stop offset="1" stop-color="#C837AB"/>
</radialGradient>
<clipPath id="clip0_79_10636">
<rect width="24" height="24" fill="white"/>
</clipPath>
</defs>
</svg>
