<svg width="24" height="24" viewBox="0 0 24 24" fill="none" xmlns="http://www.w3.org/2000/svg">
<path d="M8.56823 16.5893L7.42522 17.7323C7.35575 17.8018 7.23787 17.7955 7.17051 17.726L2.25513 12.8129C2.18566 12.7435 2.18356 12.6277 2.25092 12.5603L3.27183 11.5394C3.3413 11.4699 3.45497 11.4763 3.52233 11.5457L8.56823 16.5893Z" fill="#37AA5E"/>
<path d="M8.4208 16.4419L7.81244 17.0502C7.68193 17.1807 7.54932 17.3134 7.41879 17.4439C7.3809 17.4818 7.3409 17.5197 7.30301 17.5597C7.24828 17.6186 7.32196 17.5491 7.31775 17.5807C7.31775 17.5702 7.26933 17.5323 7.26302 17.526L2.51007 12.773C2.48691 12.7499 2.44692 12.6909 2.41534 12.6783C2.3964 12.6699 2.41745 12.6594 2.41324 12.6909C2.41113 12.7162 2.39219 12.712 2.41113 12.7036C2.42376 12.6973 2.4406 12.6741 2.45113 12.6636C2.56691 12.5478 2.68058 12.4341 2.79635 12.3184C2.9395 12.1752 3.08474 12.03 3.22788 11.8868C3.2763 11.8384 3.32471 11.79 3.37313 11.7416C3.38576 11.7289 3.40049 11.7184 3.41102 11.7037C3.42786 11.6805 3.42575 11.7037 3.4026 11.7016C3.35418 11.6995 3.37734 11.6868 3.38576 11.7037C3.39207 11.7163 3.40891 11.7268 3.41944 11.7374L8.42528 16.7432C8.61683 16.9348 8.91574 16.638 8.72208 16.4464C8.47159 16.1959 8.22107 15.9454 7.97061 15.6949C7.41067 15.135 6.85073 14.5751 6.28872 14.013L4.57103 12.2953C4.27633 12.0006 3.99004 11.6954 3.68483 11.4092C3.52275 11.2576 3.29118 11.245 3.1249 11.3986C3.03649 11.4807 2.95229 11.5712 2.86808 11.6554C2.61969 11.9038 2.36288 12.148 2.12081 12.4027C1.96293 12.569 1.95872 12.8027 2.11449 12.9711C2.13975 13.0006 2.16922 13.0258 2.19659 13.0532L2.63863 13.4952C3.16908 14.0257 3.69745 14.554 4.22791 15.0845C4.81729 15.6739 5.4046 16.2612 5.99402 16.8506C6.32872 17.1853 6.66131 17.5221 6.99811 17.8547C7.08442 17.941 7.18967 18.0021 7.31807 17.9999C7.49069 17.9957 7.59173 17.8779 7.7033 17.7684C7.98116 17.4905 8.25692 17.2148 8.5348 16.9369C8.59794 16.8738 8.66109 16.8106 8.72425 16.7475C8.90949 16.5475 8.61268 16.2486 8.42112 16.4422L8.4208 16.4419Z" fill="#37AA5E"/>
<path d="M17.6195 7.53991L11.9297 13.2297L10.652 11.952L16.3418 6.26218C16.4113 6.19272 16.527 6.19272 16.5965 6.26218L17.6174 7.2831C17.6848 7.35046 17.689 7.47045 17.6195 7.53991Z" fill="#37AA5E"/>
<path d="M17.4702 7.39018L12.0121 12.8483C11.9384 12.922 11.8563 12.9914 11.7889 13.0714C11.7868 13.0756 11.7826 13.0777 11.7784 13.082H12.0752C11.7026 12.7094 11.3301 12.3368 10.9575 11.9642C10.9048 11.9116 10.8501 11.8568 10.7975 11.8042V12.101L16.4115 6.48702C16.422 6.47649 16.4852 6.42808 16.4852 6.41334C16.4852 6.44912 16.4283 6.38387 16.4578 6.42597C16.4873 6.47017 16.542 6.51017 16.5799 6.54806C16.862 6.83013 17.1419 7.11011 17.424 7.39218C17.4303 7.3985 17.4493 7.42586 17.4598 7.42797C17.4703 7.42797 17.4514 7.41323 17.4703 7.39008C17.3966 7.47638 17.384 7.60268 17.4703 7.68688C17.5461 7.76266 17.6956 7.77529 17.7671 7.68688C17.9082 7.51848 17.9145 7.29746 17.7629 7.13114C17.7335 7.09956 17.7019 7.0701 17.6724 7.04062C17.5229 6.89117 17.3735 6.74171 17.2241 6.59227C17.083 6.45123 16.942 6.3102 16.803 6.17125C16.7651 6.13336 16.7272 6.09126 16.6788 6.06179C16.5231 5.96285 16.3252 5.99022 16.1905 6.11441C15.8894 6.39228 15.6095 6.69541 15.319 6.9859L13.4497 8.85513C12.8098 9.49506 12.1678 10.1371 11.5278 10.777C11.191 11.1138 10.8416 11.4422 10.5153 11.7895C10.5111 11.7938 10.5048 11.8001 10.5006 11.8043C10.4206 11.8843 10.4206 12.0211 10.5006 12.1011C10.8732 12.4737 11.2457 12.8462 11.6183 13.2188C11.671 13.2715 11.7257 13.3262 11.7783 13.3788C11.8583 13.4588 11.9951 13.4588 12.0751 13.3788C12.2646 13.1894 12.4519 13.002 12.6414 12.8126C13.094 12.36 13.5465 11.9074 13.9991 11.4549C14.5464 10.9075 15.0937 10.3602 15.6431 9.81084C16.1168 9.3372 16.5904 8.8636 17.064 8.38996C17.2934 8.16051 17.5355 7.93737 17.7565 7.69742C17.7607 7.69321 17.7628 7.6911 17.7671 7.68689C17.9607 7.49533 17.6618 7.19851 17.4703 7.39009L17.4702 7.39018Z" fill="#37AA5E"/>
<path d="M22.2151 7.53991L12.0205 17.7344C11.9511 17.8039 11.8332 17.7976 11.7658 17.7281L6.85045 12.8127C6.78098 12.7433 6.77888 12.6275 6.84624 12.558L7.86715 11.5371C7.93662 11.4676 8.05029 11.474 8.11765 11.5434L11.8856 15.3114L20.9373 6.25971C21.0068 6.19025 21.1226 6.19025 21.192 6.25971L22.213 7.28063C22.2803 7.35009 22.2845 7.47008 22.2151 7.53954L22.2151 7.53991Z" fill="#37AA5E"/>
<path d="M22.0653 7.39018C21.7348 7.72067 21.4065 8.04904 21.076 8.37953C20.2866 9.16892 19.4951 9.95831 18.7057 10.7498C17.7416 11.7139 16.7796 12.6759 15.8155 13.64C14.963 14.4925 14.1084 15.3471 13.2559 16.1996L11.9171 17.5384C11.9065 17.549 11.8834 17.5637 11.8771 17.5784C11.8623 17.6121 11.9087 17.5426 11.9087 17.5805C11.9087 17.5637 11.8392 17.5111 11.8287 17.5005L11.6518 17.3237C11.2182 16.8901 10.7846 16.4565 10.3531 16.0249C9.77837 15.4502 9.20373 14.8756 8.63117 14.303C8.1807 13.8526 7.72812 13.4 7.27765 12.9495C7.20818 12.8801 7.13872 12.8106 7.07136 12.7432C7.06504 12.7369 7.00821 12.6675 6.99768 12.6696C7.03557 12.6632 6.95979 12.7369 7.01242 12.6969C7.0461 12.6717 7.07557 12.6338 7.10504 12.6043C7.21029 12.4991 7.31764 12.3917 7.42289 12.2864C7.53867 12.1707 7.65234 12.057 7.76812 11.9412C7.84179 11.8675 7.93231 11.796 7.99756 11.7118C8.03545 11.6613 7.9723 11.7412 7.96809 11.6991C7.96809 11.7118 8.01229 11.7434 8.02072 11.7518C8.11544 11.8465 8.21017 11.9412 8.30279 12.0338C8.61643 12.3475 8.92797 12.659 9.24164 12.9727C9.96155 13.6926 10.6836 14.4146 11.4035 15.1345C11.515 15.2461 11.6245 15.3556 11.7361 15.4671C11.8161 15.5471 11.9529 15.5471 12.0329 15.4671C12.4034 15.0966 12.7738 14.7262 13.1464 14.3536L15.723 11.777C16.6892 10.8108 17.6554 9.84462 18.6216 8.8784C19.3141 8.18586 20.0088 7.4912 20.7013 6.79866C20.7877 6.71235 20.874 6.62605 20.9603 6.53974C20.9834 6.51658 21.0697 6.45554 21.0781 6.42186C21.076 6.42817 21.0297 6.3966 21.0571 6.43449C21.1202 6.51869 21.2129 6.59026 21.2865 6.66393C21.5118 6.88917 21.7349 7.11228 21.9601 7.33754C21.9875 7.3649 22.0128 7.39858 22.0422 7.41963C22.0801 7.43858 22.0401 7.42174 22.0654 7.39016C21.9917 7.47647 21.9791 7.60277 22.0654 7.68697C22.1412 7.76275 22.2906 7.77538 22.3622 7.68697C22.5159 7.50383 22.499 7.27649 22.3348 7.10809C22.2527 7.02389 22.1685 6.9418 22.0864 6.8597C21.8612 6.63446 21.636 6.40923 21.4086 6.1819C21.3034 6.07665 21.196 5.99034 21.034 6.00087C20.9329 6.00719 20.8466 6.0556 20.775 6.12296C20.7287 6.16717 20.6824 6.21558 20.6361 6.26189L12.2161 14.6819C12.0645 14.8335 11.9003 14.9809 11.755 15.143L11.7361 15.1619H12.0329C11.6729 14.8019 11.3151 14.4441 10.9551 14.0841C10.6899 13.8189 10.4247 13.5537 10.1573 13.2863L9.09849 12.2275C8.89641 12.0254 8.69645 11.8254 8.49437 11.6234C8.42069 11.5497 8.34701 11.4718 8.27123 11.4002C8.10704 11.2466 7.8755 11.2403 7.70918 11.3939C7.51762 11.5707 7.3387 11.7644 7.15344 11.9497L6.82506 12.278C6.76401 12.3391 6.69033 12.4001 6.64403 12.4717C6.53877 12.638 6.58509 12.838 6.7156 12.9748C6.76401 13.0253 6.81453 13.0737 6.86295 13.1221C7.06082 13.32 7.2566 13.5158 7.45445 13.7136C7.87755 14.1367 8.30065 14.5598 8.72586 14.9851C8.91111 15.1703 9.09635 15.3555 9.28369 15.5429C9.7489 16.0081 10.2141 16.4733 10.6814 16.9385C10.9908 17.2479 11.2898 17.5679 11.6097 17.8647C11.7823 18.0268 12.0202 18.0226 12.1907 17.8605C12.237 17.8163 12.2833 17.7679 12.3296 17.7215C12.5422 17.5089 12.7548 17.2963 12.9674 17.0837C13.3084 16.7427 13.6495 16.4017 13.9883 16.0628C14.4199 15.6313 14.8493 15.2019 15.2808 14.7704L16.7206 13.3305C17.2174 12.8338 17.7142 12.337 18.2089 11.8423C18.6804 11.3708 19.154 10.8971 19.6256 10.4256C20.036 10.0151 20.4465 9.60466 20.857 9.19419C21.1664 8.88475 21.4759 8.57532 21.7874 8.26377C21.9579 8.09326 22.1305 7.92065 22.301 7.75013C22.3221 7.72908 22.3452 7.70593 22.3663 7.68488C22.5557 7.49543 22.2568 7.19861 22.0653 7.39018L22.0653 7.39018Z" fill="#37AA5E"/>
</svg>
