<svg width="20" height="20" viewBox="0 0 20 20" fill="none" xmlns="http://www.w3.org/2000/svg">
<path fill-rule="evenodd" clip-rule="evenodd" d="M2.29167 10.0001C2.29167 15.7809 4.21917 17.7084 10 17.7084C15.7808 17.7084 17.7083 15.7809 17.7083 10.0001C17.7083 4.21925 15.7808 2.29175 10 2.29175C4.21917 2.29175 2.29167 4.21925 2.29167 10.0001Z" stroke="#181829" stroke-width="1.25" stroke-linecap="round" stroke-linejoin="round"/>
<path fill-rule="evenodd" clip-rule="evenodd" d="M8.83217 7.32017C8.83217 8.131 8.1755 8.78767 7.36467 8.78767C6.55467 8.78767 5.89717 8.131 5.89717 7.32017C5.89717 6.50933 6.55467 5.85267 7.36467 5.85267C8.1755 5.85267 8.83217 6.50933 8.83217 7.32017Z" stroke="#181829" stroke-width="1.25" stroke-linecap="round" stroke-linejoin="round"/>
<path d="M17.6001 12.2222C16.8659 11.4672 15.8276 9.94133 13.9201 9.94133C12.0126 9.94133 11.9709 13.3063 10.0242 13.3063C8.07675 13.3063 7.29258 12.1638 6.02342 12.7605C4.75508 13.3563 3.72175 15.728 3.72175 15.728" stroke="#181829" stroke-width="1.25" stroke-linecap="round" stroke-linejoin="round"/>
</svg>
