<svg width="62" height="32" viewBox="0 0 62 32" fill="none" xmlns="http://www.w3.org/2000/svg">
<g clip-path="url(#clip0_15_79)">
<path d="M27.0769 25.6666H22.0465L25.1904 6.34525H30.2213L27.0769 25.6666ZM17.8147 6.34525L13.0189 19.6346L12.4515 16.7729L12.452 16.774L10.7593 8.08492C10.7593 8.08492 10.5547 6.34525 8.3731 6.34525H0.444837L0.351807 6.6724C0.351807 6.6724 2.77628 7.17683 5.61371 8.88084L9.98408 25.6672H15.2253L23.2285 6.34525H17.8147ZM57.381 25.6666H62L57.9728 6.34473H53.9291C52.0618 6.34473 51.6069 7.78463 51.6069 7.78463L44.1045 25.6666H49.3484L50.397 22.7966H56.7918L57.381 25.6666ZM51.8457 18.832L54.4888 11.6015L55.9758 18.832H51.8457ZM44.4979 10.9916L45.2157 6.84244C45.2157 6.84244 43.0006 6 40.6914 6C38.195 6 32.2669 7.09104 32.2669 12.3964C32.2669 17.388 39.2246 17.45 39.2246 20.0719C39.2246 22.6938 32.9838 22.224 30.9242 20.5706L30.1763 24.909C30.1763 24.909 32.4225 26 35.8543 26C39.2871 26 44.4658 24.2226 44.4658 19.385C44.4658 14.3614 37.4456 13.8936 37.4456 11.7095C37.4462 9.52482 42.3452 9.80546 44.4979 10.9916Z" fill="#2566AF"/>
<path d="M12.452 16.7734L10.7593 8.08439C10.7593 8.08439 10.5547 6.34473 8.3731 6.34473H0.444837L0.351807 6.67188C0.351807 6.67188 4.16244 7.46161 7.8175 10.4205C11.3123 13.2486 12.452 16.7734 12.452 16.7734Z" fill="#E6A540"/>
</g>
<defs>
<clipPath id="clip0_15_79">
<rect width="62" height="32" fill="white"/>
</clipPath>
</defs>
</svg>
