<svg width="28" height="24" viewBox="0 0 28 24" fill="none" xmlns="http://www.w3.org/2000/svg">
<g clip-path="url(#clip0_15_76)">
<path fill-rule="evenodd" clip-rule="evenodd" d="M5.4624 0.118103L0.431883 10.6847C0.41274 10.724 0.406674 10.7684 0.414572 10.8114C0.422469 10.8544 0.443916 10.8937 0.475775 10.9237L14.062 23.9425C14.1006 23.9795 14.152 24.0002 14.2054 24.0002C14.2589 24.0002 14.3103 23.9795 14.3489 23.9425L27.9351 10.9245C27.967 10.8945 27.9884 10.8552 27.9963 10.8122C28.0042 10.7692 27.9981 10.7248 27.979 10.6855L22.9485 0.118916C22.9323 0.0834285 22.9061 0.0533665 22.8733 0.0323222C22.8404 0.011278 22.8022 0.00014183 22.7632 0.000244612H5.64934C5.61013 -0.000243209 5.57162 0.0106247 5.53845 0.0315374C5.50528 0.0524501 5.47886 0.0825141 5.4624 0.118103Z" fill="#50AF95"/>
<path fill-rule="evenodd" clip-rule="evenodd" d="M15.9509 11.7696C15.8533 11.7769 15.3494 11.807 14.2253 11.807C13.3312 11.807 12.6963 11.7801 12.4736 11.7696C9.01836 11.6176 6.4393 11.0161 6.4393 10.2959C6.4393 9.57578 9.01836 8.97511 12.4736 8.82067V11.1705C12.6996 11.1868 13.3466 11.225 14.2407 11.225C15.3136 11.225 15.8509 11.1803 15.9476 11.1713V8.8223C19.3956 8.97592 21.9689 9.57741 21.9689 10.2959C21.9689 11.0145 19.3964 11.6159 15.9476 11.7688L15.9509 11.7696ZM15.9509 8.57927V6.47652H20.7627V3.26996H7.66177V6.47652H12.4728V8.57846C8.56237 8.75809 5.6216 9.5327 5.6216 10.4609C5.6216 11.3892 8.56237 12.163 12.4728 12.3434V19.0817H15.95V12.341C19.8516 12.1613 22.7874 11.3875 22.7874 10.4601C22.7874 9.5327 19.854 8.7589 15.95 8.57846L15.9509 8.57927Z" fill="white"/>
</g>
<defs>
<clipPath id="clip0_15_76">
<rect width="27.5894" height="24" fill="white" transform="translate(0.410645)"/>
</clipPath>
</defs>
</svg>
