<svg width="25" height="24" viewBox="0 0 25 24" fill="none" xmlns="http://www.w3.org/2000/svg">
<g clip-path="url(#clip0_15_72)">
<path d="M18.2782 15.0491C18.6619 15.2013 18.8095 15.794 18.8388 16.0526C18.8979 16.5243 18.7655 16.7068 18.6179 16.7068C18.4703 16.7068 18.2636 16.5243 18.0426 16.1594C17.8212 15.794 17.7328 15.3837 17.851 15.1705C17.9244 15.0335 18.0862 14.973 18.2782 15.0491ZM16.0368 16.7678C16.2729 16.7678 16.5383 16.8741 16.7743 17.0868C17.2313 17.4825 17.3642 17.9386 17.1282 18.2733C16.9953 18.4406 16.7743 18.547 16.5236 18.547C16.2729 18.547 16.0075 18.4557 15.8305 18.2884C15.4176 17.9235 15.2998 17.3147 15.5647 16.9805C15.6683 16.8434 15.8305 16.7678 16.0368 16.7678ZM10.8756 21.1628C5.27115 21.1628 0.729187 16.4785 0.729187 10.6994C0.729187 4.92024 5.2716 0.236343 10.8751 0.236343C16.4791 0.236343 21.0215 4.92071 21.0215 10.6994C21.0215 12.661 20.4908 14.5017 19.5914 16.0682C19.5616 16.1136 19.4879 16.0984 19.4732 16.0375C19.1193 13.4674 17.6003 12.0527 15.3882 11.6272C15.1962 11.5965 15.1668 11.475 15.4176 11.4448C16.0959 11.3838 17.0544 11.3989 17.5558 11.4902C17.5852 11.2316 17.6003 10.9579 17.6003 10.6842C17.6003 6.86678 14.5916 3.76404 10.8898 3.76404C7.18849 3.76404 4.17977 6.86678 4.17977 10.6842C4.17977 14.5017 7.18849 17.6044 10.8903 17.6044H11.1997C11.0946 16.987 11.05 16.3602 11.0667 15.7335C11.0819 15.3076 11.1703 15.2466 11.3473 15.5813C12.2764 17.239 13.6038 18.7294 16.1991 19.3227C18.3227 19.8095 20.4463 20.372 22.7322 23.3679C22.9384 23.6265 22.629 23.9002 22.393 23.6875C20.0631 21.558 17.9395 20.8584 16.0075 20.8584C13.8394 20.874 12.3653 21.1628 10.8756 21.1628Z" fill="#FF8C00"/>
</g>
<defs>
<clipPath id="clip0_15_72">
<rect width="24" height="24" fill="white" transform="translate(0.5)"/>
</clipPath>
</defs>
</svg>
