<svg width="20" height="20" viewBox="0 0 20 20" fill="none" xmlns="http://www.w3.org/2000/svg">
<path fill-rule="evenodd" clip-rule="evenodd" d="M2.57889 2.57889C3.69095 1.46683 5.35502 1.04167 7.5 1.04167H12.5C14.645 1.04167 16.3091 1.46683 17.4211 2.57889C18.5332 3.69095 18.9583 5.35502 18.9583 7.5V12.5C18.9583 14.645 18.5332 16.309 17.4211 17.4211C16.3091 18.5332 14.645 18.9583 12.5 18.9583H7.5C5.35502 18.9583 3.69095 18.5332 2.57889 17.4211C1.46684 16.309 1.04167 14.645 1.04167 12.5V7.5C1.04167 5.35502 1.46684 3.69095 2.57889 2.57889ZM3.46278 3.46277C2.69983 4.22572 2.29167 5.47831 2.29167 7.5V12.5C2.29167 14.5217 2.69983 15.7743 3.46278 16.5372C4.22572 17.3002 5.47831 17.7083 7.5 17.7083H12.5C14.5217 17.7083 15.7743 17.3002 16.5372 16.5372C17.3002 15.7743 17.7083 14.5217 17.7083 12.5V7.5C17.7083 5.47831 17.3002 4.22572 16.5372 3.46277C15.7743 2.69983 14.5217 2.29167 12.5 2.29167H7.5C5.47831 2.29167 4.22572 2.69983 3.46278 3.46277Z" fill="#181829"/>
<path fill-rule="evenodd" clip-rule="evenodd" d="M1.475 5.925C1.475 5.57982 1.75482 5.3 2.1 5.3H17.9C18.2452 5.3 18.525 5.57982 18.525 5.925C18.525 6.27018 18.2452 6.55 17.9 6.55H2.1C1.75482 6.55 1.475 6.27018 1.475 5.925Z" fill="#181829"/>
<path fill-rule="evenodd" clip-rule="evenodd" d="M7.1 1.13333C7.44518 1.13333 7.725 1.41316 7.725 1.75833V5.80833C7.725 6.15351 7.44518 6.43333 7.1 6.43333C6.75482 6.43333 6.475 6.15351 6.475 5.80833V1.75833C6.475 1.41316 6.75482 1.13333 7.1 1.13333Z" fill="#181829"/>
<path fill-rule="evenodd" clip-rule="evenodd" d="M12.9 1.13333C13.2452 1.13333 13.525 1.41316 13.525 1.75833V5.43333C13.525 5.77851 13.2452 6.05833 12.9 6.05833C12.5548 6.05833 12.275 5.77851 12.275 5.43333V1.75833C12.275 1.41316 12.5548 1.13333 12.9 1.13333Z" fill="#181829"/>
<path fill-rule="evenodd" clip-rule="evenodd" d="M9.03061 10.2775C8.92485 10.3387 8.75 10.5335 8.75 11.0417V13.0417C8.75 13.5498 8.92485 13.7447 9.03061 13.8058C9.13593 13.8667 9.39057 13.921 9.82852 13.6674L11.5619 12.6674C11.562 12.6674 11.5617 12.6675 11.5619 12.6674C11.9994 12.414 12.0813 12.1652 12.0813 12.0417C12.0813 11.9182 11.9998 11.6696 11.5623 11.4161C11.5621 11.416 11.5624 11.4162 11.5623 11.4161L10.696 10.9164L9.82934 10.4164C9.39139 10.1628 9.13593 10.2166 9.03061 10.2775ZM10.4544 9.33386C9.78411 8.94594 9.03061 8.8335 8.4048 9.19543C7.77932 9.55717 7.5 10.2665 7.5 11.0417V13.0417C7.5 13.8169 7.77932 14.5262 8.4048 14.8879C9.03061 15.2498 9.78412 15.1374 10.4544 14.7495C10.4543 14.7495 10.4545 14.7494 10.4544 14.7495L12.1873 13.7497C12.8578 13.3615 13.3312 12.764 13.3312 12.0417C13.3312 11.3194 12.8586 10.7223 12.1881 10.3341L11.3207 9.83363L10.4544 9.33386C10.4545 9.33394 10.4542 9.33377 10.4544 9.33386Z" fill="#181829"/>
</svg>
