<svg width="24" height="24" viewBox="0 0 24 24" fill="none" xmlns="http://www.w3.org/2000/svg">
<g clip-path="url(#clip0_79_10837)">
<path d="M12 24C18.6274 24 24 18.6274 24 12C24 5.37258 18.6274 0 12 0C5.37258 0 0 5.37258 0 12C0 18.6274 5.37258 24 12 24Z" fill="#F43635"/>
<g clip-path="url(#clip1_79_10837)">
<path d="M18.7212 8.60818C18.642 8.31033 18.486 8.0385 18.2688 7.81989C18.0516 7.60128 17.7808 7.44355 17.4835 7.36249C16.3889 7.06818 12.0139 7.06818 12.0139 7.06818C12.0139 7.06818 7.63892 7.06818 6.54437 7.36249C6.24704 7.44355 5.97622 7.60128 5.759 7.81989C5.54178 8.0385 5.38579 8.31033 5.30664 8.60818C5.01392 9.70749 5.01392 12 5.01392 12C5.01392 12 5.01392 14.2925 5.30664 15.3918C5.38579 15.6897 5.54178 15.9615 5.759 16.1801C5.97622 16.3987 6.24704 16.5564 6.54437 16.6375C7.63892 16.9318 12.0139 16.9318 12.0139 16.9318C12.0139 16.9318 16.3889 16.9318 17.4835 16.6375C17.7808 16.5564 18.0516 16.3987 18.2688 16.1801C18.486 15.9615 18.642 15.6897 18.7212 15.3918C19.0139 14.2925 19.0139 12 19.0139 12C19.0139 12 19.0139 9.70749 18.7212 8.60818Z" fill="white"/>
<path d="M10.582 14.0817V9.91832L14.2411 12L10.582 14.0817Z" fill="#F43635"/>
</g>
</g>
<defs>
<clipPath id="clip0_79_10837">
<rect width="24" height="24" fill="white"/>
</clipPath>
<clipPath id="clip1_79_10837">
<rect width="14" height="14" fill="white" transform="translate(5 5)"/>
</clipPath>
</defs>
</svg>
