<svg width="82" height="514" viewBox="0 0 82 514" fill="none" xmlns="http://www.w3.org/2000/svg">
<path d="M13.6631 478L0.663086 465V478H13.6631Z" fill="white"/>
<path fill-rule="evenodd" clip-rule="evenodd" d="M28.2853 509.52C14.6051 505.305 4.66309 492.563 4.66309 477.5H0.663086C0.663086 494.571 12.0693 508.977 27.6761 513.514C27.6674 513.344 27.6631 513.172 27.6631 513C27.6631 511.776 27.8829 510.604 28.2853 509.52ZM47.1351 509.785C47.4774 510.794 47.6631 511.875 47.6631 513C47.6631 513.267 47.6526 513.532 47.632 513.794C63.7583 509.599 75.6631 494.94 75.6631 477.5H71.6631C71.6631 492.894 61.28 505.863 47.1351 509.785Z" fill="white"/>
<path fill-rule="evenodd" clip-rule="evenodd" d="M73.6631 474C75.8722 474 77.6631 472.209 77.6631 470C77.6631 467.791 75.8722 466 73.6631 466C71.4539 466 69.6631 467.791 69.6631 470C69.6631 472.209 71.4539 474 73.6631 474ZM73.6631 478C78.0814 478 81.6631 474.418 81.6631 470C81.6631 465.582 78.0814 462 73.6631 462C69.2448 462 65.6631 465.582 65.6631 470C65.6631 474.418 69.2448 478 73.6631 478Z" fill="white"/>
<path fill-rule="evenodd" clip-rule="evenodd" d="M72.1631 463.5V0H76.1631V463.5H72.1631Z" fill="url(#paint0_linear_18_194)"/>
<defs>
<linearGradient id="paint0_linear_18_194" x1="74.6631" y1="0" x2="74.6631" y2="463.5" gradientUnits="userSpaceOnUse">
<stop stop-color="white" stop-opacity="0"/>
<stop offset="1" stop-color="white"/>
</linearGradient>
</defs>
</svg>
