<svg width="200" height="200" viewBox="0 0 200 200" fill="none" xmlns="http://www.w3.org/2000/svg">
<path d="M174.798 65.9936C168.516 50.3906 173.127 24.4981 160.375 14.2961C148.022 4.39415 126.176 16.1339 109.788 14.021C93.4002 11.9081 74.6949 -5.00767 60.4835 1.46858C45.8839 8.14488 44.5193 34.4625 34.9431 48.0401C25.6492 61.2552 2.12052 69.6693 0.132347 87.1852C-1.85583 104.701 19.12 118.891 25.2022 134.032C31.4844 149.647 26.8727 175.527 39.6253 185.729C51.9779 195.631 73.8243 183.892 90.2709 186.004C106.717 188.117 125.305 205.046 139.516 198.507C154.175 191.831 155.481 165.513 165.057 151.935C174.351 138.77 197.879 130.306 199.868 112.79C201.856 95.2743 180.88 81.1341 174.798 65.9936Z" fill="#2C323E" fill-opacity="0.88"/>
</svg>
