<svg width="56" height="56" viewBox="0 0 56 56" fill="none" xmlns="http://www.w3.org/2000/svg">
<path d="M53.3237 54.5952C53.3237 55.3546 42.0889 55.9702 28.23 55.9702C14.3711 55.9702 3.13625 55.3546 3.13625 54.5952C3.13625 53.8359 14.3711 53.2202 28.23 53.2202C42.0889 53.2202 53.3237 53.8359 53.3237 54.5952Z" fill="#181829" fill-opacity="0.84"/>
<path d="M45.0938 21.1003H5.14375L5.14375 54.5953H45.0938V21.1003Z" fill="#FDB827"/>
<path d="M29.2688 21.1003H20.9638V54.5953H29.2688V21.1003Z" fill="#AD1717"/>
<path d="M25.4213 8.28023C25.4213 8.28023 21.8163 -2.53477 16.0813 0.555234C10.3463 3.64523 10.5813 13.7202 18.2863 13.0652C25.9913 12.4102 25.4213 8.28023 25.4213 8.28023Z" fill="#D32F2F"/>
<path d="M26.0812 8.28023C26.0812 8.28023 29.6913 -2.53477 35.4262 0.555234C41.1612 3.64523 40.9262 13.7252 33.2212 13.0552C25.5162 12.3852 26.0812 8.28023 26.0812 8.28023Z" fill="#D32F2F"/>
<path d="M25.7513 12.1452C27.6207 12.1452 29.1363 10.6297 29.1363 8.76023C29.1363 6.89074 27.6207 5.37523 25.7513 5.37523C23.8818 5.37523 22.3663 6.89074 22.3663 8.76023C22.3663 10.6297 23.8818 12.1452 25.7513 12.1452Z" fill="#AD1717"/>
<path d="M45.0263 11.3352L5.21125 11.3352C3.81121 11.3352 2.67625 12.4702 2.67625 13.8702V18.5652C2.67625 19.9653 3.81121 21.1002 5.21125 21.1002H45.0263C46.4263 21.1002 47.5613 19.9653 47.5613 18.5652V13.8702C47.5613 12.4702 46.4263 11.3352 45.0263 11.3352Z" fill="#F3703A"/>
<path d="M29.2713 11.3352H20.9663V21.1002H29.2713V11.3352Z" fill="#D32F2F"/>
</svg>
