<svg width="166" height="43" viewBox="0 0 166 43" fill="none" xmlns="http://www.w3.org/2000/svg">
<path fill-rule="evenodd" clip-rule="evenodd" d="M3.77456 25.6103L16.7244 38.5601C19.0675 40.9033 22.8665 40.9033 25.2097 38.5601L38.2324 25.5374C40.5756 23.1942 40.5756 19.3953 38.2324 17.0521L25.2826 4.10227C22.9394 1.75912 19.1404 1.75912 16.7973 4.10226L3.77455 17.125C1.43141 19.4682 1.43141 23.2671 3.77456 25.6103ZM20.9769 19.3312C26.8811 19.3224 29.8441 26.4606 25.6692 30.6355C23.0832 33.2215 18.8904 33.2215 16.3044 30.6355C12.1362 26.4673 15.0822 19.3401 20.9769 19.3312ZM2.36034 27.0245C-0.76385 23.9003 -0.763854 18.835 2.36034 15.7108L15.3831 2.68805C18.5073 -0.436143 23.5726 -0.436142 26.6968 2.68805L39.6466 15.6379C42.7708 18.7621 42.7708 23.8274 39.6466 26.9516L26.6239 39.9743C23.4997 43.0985 18.4344 43.0985 15.3102 39.9743L2.36034 27.0245ZM17.7186 29.2213C19.5236 31.0262 22.45 31.0262 24.255 29.2213C27.1689 26.3073 25.1009 21.3251 20.9799 21.3312C16.8655 21.3374 14.8093 26.312 17.7186 29.2213Z" fill="white" fill-opacity="0.32"/>
<path d="M60.9094 26.5016C60.8615 26.4232 60.819 26.3426 60.782 26.2599C60.745 26.1771 60.709 26.0922 60.6742 26.0051L57.3231 17.2321C57.3231 17.2104 57.3198 17.1908 57.3133 17.1733C57.3068 17.1559 57.3035 17.1385 57.3035 17.1211C57.3035 16.9991 57.3841 16.9382 57.5452 16.9382H59.6486C59.8141 16.9382 59.9273 17.0209 59.9883 17.1864L61.9807 23.1309C62.1592 22.6344 62.3302 22.139 62.4935 21.6448C62.6568 21.1505 62.8179 20.6551 62.9769 20.1586C63.1358 19.6622 63.297 19.1668 63.4603 18.6725C63.6236 18.1782 63.7945 17.6829 63.9731 17.1864C64.034 17.0209 64.1538 16.9382 64.3323 16.9382H66.3901C66.4902 16.9382 66.561 16.9567 66.6024 16.9937C66.6437 17.0307 66.6644 17.0797 66.6644 17.1407C66.6644 17.1755 66.6622 17.1995 66.6579 17.2125V17.2321L63.2872 26.0051C63.2654 26.0661 63.2393 26.1336 63.2088 26.2076C63.1783 26.2817 63.1435 26.3503 63.1043 26.4134C63.0651 26.4765 63.0193 26.5299 62.9671 26.5734C62.9148 26.617 62.856 26.6388 62.7907 26.6388H61.1772C61.0422 26.6388 60.9529 26.593 60.9094 26.5016ZM67.8402 17.2387C67.8402 17.1472 67.8653 17.0743 67.9154 17.0198C67.9654 16.9654 68.0362 16.9382 68.1277 16.9382H74.6143C74.7101 16.9382 74.7842 16.9665 74.8364 17.0231C74.8887 17.0797 74.9148 17.1559 74.9148 17.2517V18.8718C74.9148 18.9458 74.8887 19.0166 74.8364 19.0841C74.7842 19.1516 74.708 19.1853 74.6078 19.1853H70.3748V20.7988H73.641C73.7237 20.7988 73.7923 20.8184 73.8468 20.8576C73.9012 20.8968 73.9284 20.9621 73.9284 21.0536V22.4646C73.9284 22.5255 73.9045 22.5843 73.8566 22.6409C73.8087 22.6976 73.739 22.7259 73.6475 22.7259H70.3748V24.3916H74.7646C74.9605 24.3916 75.0585 24.4918 75.0585 24.6921V26.3383C75.0585 26.3818 75.0411 26.421 75.0063 26.4559C74.9889 26.5778 74.8996 26.6388 74.7384 26.6388H68.1277C68.0406 26.6388 67.9709 26.6159 67.9186 26.5702C67.8664 26.5245 67.8402 26.4537 67.8402 26.3579V17.2387ZM76.4303 17.2191C76.4303 17.1407 76.4565 17.0732 76.5087 17.0166C76.561 16.9599 76.6328 16.9316 76.7243 16.9316H78.6579C78.7319 16.9316 78.7994 16.9578 78.8604 17.01C78.9214 17.0623 78.954 17.132 78.9584 17.2191V24.3263H82.5512C82.6296 24.3263 82.6971 24.3524 82.7537 24.4047C82.8103 24.4569 82.8386 24.5288 82.8386 24.6203V26.3383C82.8386 26.4123 82.8136 26.4798 82.7635 26.5408C82.7134 26.6018 82.6426 26.6344 82.5512 26.6388H76.7178C76.5261 26.6388 76.4303 26.543 76.4303 26.3513V17.2191ZM86.1701 21.7917C86.1701 22.1532 86.2311 22.4907 86.353 22.8043C86.475 23.1178 86.6459 23.3911 86.8658 23.6241C87.0858 23.8571 87.346 24.04 87.6464 24.1728C87.9469 24.3056 88.2779 24.372 88.6394 24.372C89.0008 24.372 89.3329 24.3056 89.6356 24.1728C89.9382 24.04 90.1995 23.8571 90.4194 23.6241C90.6394 23.3911 90.8103 23.1178 90.9322 22.8043C91.0542 22.4907 91.1151 22.1532 91.1151 21.7917C91.1151 21.4346 91.0542 21.0982 90.9322 20.7825C90.8103 20.4667 90.6394 20.1913 90.4194 19.9561C90.1995 19.721 89.9382 19.5359 89.6356 19.4009C89.3329 19.2659 89.0008 19.1984 88.6394 19.1984C88.2779 19.1984 87.9469 19.2659 87.6464 19.4009C87.346 19.5359 87.0858 19.721 86.8658 19.9561C86.6459 20.1913 86.475 20.4667 86.353 20.7825C86.2311 21.0982 86.1701 21.4346 86.1701 21.7917ZM83.6486 21.7983C83.6486 21.3366 83.7074 20.8935 83.825 20.4689C83.9426 20.0443 84.1102 19.6458 84.328 19.2735C84.5457 18.9012 84.8059 18.5626 85.1086 18.2577C85.4113 17.9529 85.7477 17.6927 86.1179 17.4771C86.488 17.2615 86.8854 17.0939 87.31 16.9741C87.7346 16.8543 88.1777 16.7945 88.6394 16.7945C89.0966 16.7945 89.5387 16.8543 89.9654 16.9741C90.3922 17.0939 90.7907 17.2615 91.1609 17.4771C91.531 17.6927 91.8685 17.9529 92.1734 18.2577C92.4782 18.5626 92.7384 18.9012 92.954 19.2735C93.1696 19.6458 93.3372 20.0443 93.457 20.4689C93.5768 20.8935 93.6366 21.3366 93.6366 21.7983C93.6366 22.2599 93.5768 22.703 93.457 23.1276C93.3372 23.5522 93.1696 23.9485 92.954 24.3165C92.7384 24.6845 92.4782 25.0198 92.1734 25.3225C91.8685 25.6252 91.531 25.8854 91.1609 26.1031C90.7907 26.3209 90.3922 26.4885 89.9654 26.6061C89.5387 26.7237 89.0966 26.7825 88.6394 26.7825C88.1777 26.7825 87.7346 26.7237 87.31 26.6061C86.8854 26.4885 86.488 26.3209 86.1179 26.1031C85.7477 25.8854 85.4113 25.6252 85.1086 25.3225C84.8059 25.0198 84.5457 24.6845 84.328 24.3165C84.1102 23.9485 83.9426 23.5522 83.825 23.1276C83.7074 22.703 83.6486 22.2599 83.6486 21.7983ZM97.4777 19.2114C97.5604 19.0895 97.6606 18.9687 97.7782 18.8489C97.8958 18.7291 98.034 18.6224 98.193 18.5288C98.3519 18.4352 98.5327 18.359 98.7352 18.3002C98.9377 18.2414 99.1674 18.212 99.4243 18.212C99.9208 18.212 100.364 18.3078 100.754 18.4994C101.143 18.691 101.474 18.9523 101.747 19.2833C102.019 19.6143 102.226 20.0008 102.367 20.4428C102.509 20.8848 102.579 21.3562 102.579 21.8571V26.1358C102.579 26.3013 102.544 26.4265 102.472 26.5114C102.4 26.5963 102.286 26.6388 102.129 26.6388H100.62C100.433 26.6388 100.304 26.6072 100.234 26.544C100.165 26.4809 100.13 26.3579 100.13 26.175V21.8571C100.13 21.6698 100.094 21.4956 100.022 21.3345C99.9502 21.1733 99.8533 21.0329 99.7314 20.9131C99.6094 20.7934 99.4668 20.6997 99.3035 20.6322C99.1402 20.5647 98.9671 20.531 98.7842 20.531C98.6274 20.531 98.4739 20.5626 98.3236 20.6257C98.1734 20.6889 98.0384 20.7781 97.9186 20.8935C97.7989 21.0089 97.6987 21.1472 97.6181 21.3083C97.5376 21.4695 97.4908 21.648 97.4777 21.844V26.1554C97.4777 26.2294 97.4635 26.3034 97.4352 26.3775C97.4069 26.4515 97.3645 26.5081 97.3078 26.5473C97.2512 26.5822 97.1979 26.6061 97.1478 26.6192C97.0977 26.6322 97.04 26.6388 96.9747 26.6388H95.4984C95.3111 26.6388 95.1761 26.593 95.0934 26.5016C95.0106 26.4101 94.9693 26.2882 94.9693 26.1358V20.8184V20.7727V18.826V18.7934V16.3699C94.9693 16.2218 95.0106 16.102 95.0934 16.0106C95.1761 15.9191 95.3111 15.8734 95.4984 15.8734H96.9747C97.0749 15.8734 97.1859 15.9082 97.3078 15.9779C97.3645 16.0171 97.4069 16.0737 97.4352 16.1478C97.4635 16.2218 97.4777 16.2915 97.4777 16.3568V19.2114ZM112.685 26.1554C112.685 26.2294 112.672 26.3002 112.646 26.3677C112.62 26.4352 112.576 26.4885 112.515 26.5277C112.467 26.5756 112.411 26.6061 112.345 26.6192C112.28 26.6322 112.223 26.6388 112.176 26.6388H110.889C110.797 26.6388 110.723 26.6268 110.667 26.6028C110.61 26.5789 110.564 26.5451 110.529 26.5016C110.495 26.458 110.465 26.4047 110.441 26.3415C110.417 26.2784 110.392 26.2098 110.366 26.1358L110.177 25.6458C110.059 25.7634 109.931 25.8886 109.791 26.0215C109.652 26.1543 109.498 26.2773 109.331 26.3905C109.163 26.5038 108.981 26.5985 108.785 26.6747C108.589 26.7509 108.38 26.789 108.158 26.789C107.762 26.789 107.382 26.7389 107.018 26.6388C106.655 26.5386 106.315 26.396 105.999 26.2109C105.683 26.0258 105.397 25.8037 105.14 25.5446C104.883 25.2855 104.662 24.997 104.477 24.6791C104.292 24.3611 104.149 24.0182 104.049 23.6502C103.949 23.2822 103.899 22.8979 103.899 22.4972C103.899 21.8919 104.01 21.329 104.232 20.8086C104.454 20.2882 104.757 19.8353 105.14 19.4499C105.523 19.0645 105.974 18.7618 106.492 18.5419C107.011 18.3219 107.566 18.212 108.158 18.212C108.428 18.212 108.676 18.2523 108.903 18.3328C109.129 18.4134 109.335 18.519 109.52 18.6497C109.705 18.7803 109.873 18.9284 110.023 19.0939C110.173 19.2593 110.307 19.427 110.425 19.5969L110.68 18.8064C110.723 18.6976 110.759 18.6094 110.787 18.5419C110.816 18.4744 110.846 18.4243 110.879 18.3916C110.912 18.359 110.952 18.3372 111 18.3263C111.048 18.3154 111.115 18.31 111.202 18.31H112.176C112.223 18.31 112.28 18.3165 112.345 18.3296C112.411 18.3426 112.467 18.3731 112.515 18.421C112.576 18.4689 112.62 18.5234 112.646 18.5843C112.672 18.6453 112.685 18.715 112.685 18.7934V26.1554ZM106.251 22.4972C106.251 22.7847 106.295 23.0536 106.385 23.304C106.474 23.5544 106.601 23.771 106.767 23.954C106.932 24.1369 107.131 24.2817 107.364 24.3884C107.597 24.4951 107.855 24.5484 108.139 24.5484C108.43 24.5484 108.701 24.4951 108.952 24.3884C109.202 24.2817 109.42 24.1369 109.605 23.954C109.79 23.771 109.935 23.5544 110.039 23.304C110.144 23.0536 110.196 22.7847 110.196 22.4972C110.196 22.2185 110.144 21.9529 110.039 21.7003C109.935 21.4477 109.79 21.2256 109.605 21.034C109.42 20.8424 109.202 20.691 108.952 20.58C108.701 20.4689 108.43 20.4134 108.139 20.4134C107.855 20.4134 107.597 20.4689 107.364 20.58C107.131 20.691 106.932 20.8424 106.767 21.034C106.601 21.2256 106.474 21.4477 106.385 21.7003C106.295 21.9529 106.251 22.2185 106.251 22.4972ZM119.564 24.0846C119.625 24.0411 119.682 24.0138 119.737 24.0029C119.791 23.9921 119.834 23.9866 119.864 23.9866C119.938 23.9866 120.006 24.0019 120.067 24.0323C120.128 24.0628 120.191 24.1282 120.256 24.2283L120.988 25.3323C121.01 25.3671 121.03 25.4063 121.05 25.4499C121.069 25.4934 121.079 25.5283 121.079 25.5544C121.079 25.6546 121.048 25.7362 120.984 25.7994C120.921 25.8625 120.853 25.918 120.779 25.9659C120.422 26.2142 120.031 26.4134 119.606 26.5636C119.182 26.7139 118.732 26.789 118.257 26.789C117.865 26.789 117.487 26.7389 117.124 26.6388C116.76 26.5386 116.422 26.396 116.108 26.2109C115.795 26.0258 115.507 25.8037 115.246 25.5446C114.984 25.2855 114.762 24.997 114.579 24.6791C114.397 24.3611 114.254 24.0182 114.152 23.6502C114.049 23.2822 113.998 22.8979 113.998 22.4972C113.998 22.0966 114.049 21.7112 114.152 21.341C114.254 20.9708 114.397 20.6279 114.579 20.3121C114.762 19.9964 114.984 19.709 115.246 19.4499C115.507 19.1908 115.795 18.9697 116.108 18.7868C116.422 18.6039 116.76 18.4624 117.124 18.3622C117.487 18.2621 117.865 18.212 118.257 18.212C118.732 18.212 119.171 18.2751 119.573 18.4014C119.976 18.5277 120.354 18.715 120.707 18.9632L120.687 18.9436C120.783 19.0002 120.859 19.0666 120.916 19.1429C120.973 19.2191 121.001 19.3138 121.001 19.427C121.001 19.5054 120.975 19.586 120.922 19.6687L120.341 20.6551C120.219 20.8685 120.071 20.9752 119.897 20.9752C119.858 20.9752 119.81 20.9654 119.753 20.9458C119.697 20.9262 119.633 20.8924 119.564 20.8445C119.372 20.7182 119.166 20.6148 118.946 20.5342C118.726 20.4537 118.492 20.4134 118.244 20.4134C117.97 20.4134 117.717 20.4689 117.486 20.58C117.256 20.691 117.059 20.8424 116.895 21.034C116.732 21.2256 116.605 21.4477 116.513 21.7003C116.422 21.9529 116.376 22.2185 116.376 22.4972C116.376 22.7847 116.422 23.0536 116.513 23.304C116.605 23.5544 116.732 23.771 116.895 23.954C117.059 24.1369 117.256 24.2817 117.486 24.3884C117.717 24.4951 117.97 24.5484 118.244 24.5484C118.492 24.5484 118.725 24.5049 118.943 24.4178C119.161 24.3307 119.368 24.2196 119.564 24.0846ZM122.32 16.3764C122.32 16.3024 122.323 16.2348 122.327 16.1739C122.331 16.1129 122.35 16.0607 122.382 16.0171C122.415 15.9736 122.466 15.9398 122.536 15.9159C122.606 15.8919 122.704 15.8799 122.83 15.8799H124.391C124.474 15.8799 124.542 15.8941 124.597 15.9224C124.651 15.9507 124.695 15.9866 124.728 16.0302C124.76 16.0737 124.782 16.1205 124.793 16.1706C124.804 16.2207 124.809 16.2675 124.809 16.3111V21.145L127.161 18.5321C127.274 18.4058 127.409 18.3426 127.566 18.3426H129.571C129.811 18.3426 129.931 18.4363 129.931 18.6235C129.931 18.6714 129.923 18.7106 129.908 18.7411C129.892 18.7716 129.861 18.8151 129.813 18.8718L127.128 21.7068L130.505 26.0443H130.492C130.549 26.1009 130.589 26.1586 130.613 26.2174C130.637 26.2762 130.649 26.3296 130.649 26.3775C130.649 26.4776 130.622 26.5462 130.568 26.5832C130.513 26.6203 130.431 26.6388 130.323 26.6388H128.115C128.041 26.6388 127.971 26.6105 127.906 26.5538C127.84 26.4972 127.768 26.4123 127.69 26.2991L125.554 23.2746L124.829 24.0258V26.1358C124.829 26.1706 124.823 26.2163 124.812 26.273C124.802 26.3296 124.78 26.3851 124.747 26.4395C124.714 26.494 124.67 26.5408 124.613 26.58C124.557 26.6192 124.483 26.6388 124.391 26.6388H122.752C122.673 26.6388 122.606 26.6181 122.549 26.5767C122.492 26.5353 122.448 26.4885 122.415 26.4363C122.382 26.384 122.358 26.335 122.343 26.2893C122.328 26.2436 122.32 26.2163 122.32 26.2076V16.3764ZM131.655 24.7574C131.655 24.6703 131.679 24.6007 131.727 24.5484C131.775 24.4961 131.847 24.47 131.943 24.47H133.667C133.741 24.47 133.81 24.4961 133.873 24.5484C133.936 24.6007 133.968 24.6703 133.968 24.7574V26.3383C133.968 26.4167 133.943 26.4863 133.893 26.5473C133.842 26.6083 133.767 26.6388 133.667 26.6388H131.943C131.751 26.6388 131.655 26.5386 131.655 26.3383V24.7574ZM140.853 24.0846C140.914 24.0411 140.971 24.0138 141.026 24.0029C141.08 23.9921 141.123 23.9866 141.153 23.9866C141.227 23.9866 141.295 24.0019 141.356 24.0323C141.417 24.0628 141.48 24.1282 141.545 24.2283L142.277 25.3323C142.299 25.3671 142.319 25.4063 142.339 25.4499C142.358 25.4934 142.368 25.5283 142.368 25.5544C142.368 25.6546 142.337 25.7362 142.274 25.7994C142.21 25.8625 142.142 25.918 142.068 25.9659C141.711 26.2142 141.32 26.4134 140.895 26.5636C140.471 26.7139 140.021 26.789 139.546 26.789C139.154 26.789 138.777 26.7389 138.413 26.6388C138.049 26.5386 137.711 26.396 137.397 26.2109C137.084 26.0258 136.796 25.8037 136.535 25.5446C136.274 25.2855 136.051 24.997 135.869 24.6791C135.686 24.3611 135.543 24.0182 135.441 23.6502C135.338 23.2822 135.287 22.8979 135.287 22.4972C135.287 22.0966 135.338 21.7112 135.441 21.341C135.543 20.9708 135.686 20.6279 135.869 20.3121C136.051 19.9964 136.274 19.709 136.535 19.4499C136.796 19.1908 137.084 18.9697 137.397 18.7868C137.711 18.6039 138.049 18.4624 138.413 18.3622C138.777 18.2621 139.154 18.212 139.546 18.212C140.021 18.212 140.46 18.2751 140.863 18.4014C141.265 18.5277 141.643 18.715 141.996 18.9632L141.976 18.9436C142.072 19.0002 142.148 19.0666 142.205 19.1429C142.262 19.2191 142.29 19.3138 142.29 19.427C142.29 19.5054 142.264 19.586 142.212 19.6687L141.63 20.6551C141.508 20.8685 141.36 20.9752 141.186 20.9752C141.147 20.9752 141.099 20.9654 141.042 20.9458C140.986 20.9262 140.922 20.8924 140.853 20.8445C140.661 20.7182 140.455 20.6148 140.235 20.5342C140.016 20.4537 139.781 20.4134 139.533 20.4134C139.259 20.4134 139.006 20.4689 138.775 20.58C138.545 20.691 138.348 20.8424 138.184 21.034C138.021 21.2256 137.894 21.4477 137.802 21.7003C137.711 21.9529 137.665 22.2185 137.665 22.4972C137.665 22.7847 137.711 23.0536 137.802 23.304C137.894 23.5544 138.021 23.771 138.184 23.954C138.348 24.1369 138.545 24.2817 138.775 24.3884C139.006 24.4951 139.259 24.5484 139.533 24.5484C139.781 24.5484 140.014 24.5049 140.232 24.4178C140.45 24.3307 140.657 24.2196 140.853 24.0846ZM143.08 22.4972C143.08 22.0966 143.131 21.7112 143.234 21.341C143.336 20.9708 143.48 20.6279 143.665 20.3121C143.85 19.9964 144.072 19.709 144.331 19.4499C144.59 19.1908 144.879 18.9697 145.197 18.7868C145.515 18.6039 145.858 18.4624 146.226 18.3622C146.594 18.2621 146.978 18.212 147.379 18.212C147.971 18.212 148.527 18.3219 149.048 18.5419C149.568 18.7618 150.021 19.0645 150.406 19.4499C150.792 19.8353 151.097 20.2882 151.321 20.8086C151.545 21.329 151.657 21.8919 151.657 22.4972C151.657 22.8979 151.606 23.2822 151.504 23.6502C151.401 24.0182 151.258 24.3611 151.073 24.6791C150.888 24.997 150.666 25.2855 150.406 25.5446C150.147 25.8037 149.859 26.0258 149.541 26.2109C149.223 26.396 148.882 26.5386 148.519 26.6388C148.155 26.7389 147.775 26.789 147.379 26.789C146.978 26.789 146.594 26.7389 146.226 26.6388C145.858 26.5386 145.515 26.396 145.197 26.2109C144.879 26.0258 144.59 25.8037 144.331 25.5446C144.072 25.2855 143.85 24.997 143.665 24.6791C143.48 24.3611 143.336 24.0182 143.234 23.6502C143.131 23.2822 143.08 22.8979 143.08 22.4972ZM145.465 22.4972C145.465 22.7847 145.509 23.0536 145.599 23.304C145.688 23.5544 145.814 23.771 145.977 23.954C146.141 24.1369 146.339 24.2817 146.572 24.3884C146.805 24.4951 147.067 24.5484 147.359 24.5484C147.642 24.5484 147.898 24.4951 148.127 24.3884C148.355 24.2817 148.549 24.1369 148.708 23.954C148.867 23.771 148.989 23.5544 149.074 23.304C149.159 23.0536 149.201 22.7847 149.201 22.4972C149.201 22.2185 149.159 21.9529 149.074 21.7003C148.989 21.4477 148.867 21.2256 148.708 21.034C148.549 20.8424 148.355 20.691 148.127 20.58C147.898 20.4689 147.642 20.4134 147.359 20.4134C147.067 20.4134 146.805 20.4689 146.572 20.58C146.339 20.691 146.141 20.8424 145.977 21.034C145.814 21.2256 145.688 21.4477 145.599 21.7003C145.509 21.9529 145.465 22.2185 145.465 22.4972ZM153.127 18.4537C153.184 18.4058 153.244 18.3753 153.307 18.3622C153.37 18.3492 153.43 18.3426 153.486 18.3426H154.473C154.551 18.3426 154.619 18.3568 154.675 18.3851C154.732 18.4134 154.78 18.4515 154.819 18.4994C154.858 18.5473 154.89 18.6018 154.914 18.6627C154.938 18.7237 154.961 18.7868 154.982 18.8522L155.185 19.6883C155.25 19.5533 155.33 19.3998 155.423 19.2278C155.517 19.0558 155.641 18.8946 155.796 18.7444C155.95 18.5941 156.144 18.4678 156.377 18.3655C156.61 18.2632 156.901 18.212 157.249 18.212C157.806 18.212 158.294 18.3307 158.712 18.568C159.13 18.8053 159.474 19.1243 159.744 19.525C159.827 19.39 159.94 19.2452 160.084 19.0906C160.228 18.936 160.4 18.7934 160.6 18.6627C160.801 18.5321 161.03 18.4243 161.289 18.3394C161.548 18.2544 161.835 18.212 162.148 18.212C162.645 18.212 163.088 18.3078 163.478 18.4994C163.867 18.691 164.198 18.9523 164.471 19.2833C164.743 19.6143 164.95 20.0008 165.091 20.4428C165.233 20.8848 165.303 21.3562 165.303 21.8571V26.1358C165.303 26.3013 165.268 26.4265 165.196 26.5114C165.124 26.5963 165.01 26.6388 164.853 26.6388H163.344C163.157 26.6388 163.028 26.6072 162.958 26.544C162.889 26.4809 162.854 26.3579 162.854 26.175V21.8571C162.854 21.6698 162.824 21.4956 162.766 21.3345C162.707 21.1733 162.625 21.0329 162.521 20.9131C162.416 20.7934 162.289 20.6997 162.139 20.6322C161.988 20.5647 161.822 20.531 161.639 20.531C161.473 20.531 161.317 20.5636 161.168 20.629C161.02 20.6943 160.89 20.7847 160.777 20.9001C160.663 21.0155 160.573 21.1548 160.505 21.3181C160.438 21.4814 160.404 21.6611 160.404 21.8571V26.1358C160.404 26.3013 160.368 26.4265 160.296 26.5114C160.225 26.5963 160.11 26.6388 159.953 26.6388H159.816H159.764H158.444C158.257 26.6388 158.129 26.6072 158.059 26.544C157.989 26.4809 157.955 26.3579 157.955 26.175V21.8571C157.955 21.6698 157.927 21.4956 157.873 21.3345C157.818 21.1733 157.74 21.0329 157.638 20.9131C157.535 20.7934 157.411 20.6997 157.265 20.6322C157.12 20.5647 156.955 20.531 156.772 20.531C156.615 20.531 156.462 20.5626 156.312 20.6257C156.161 20.6889 156.026 20.7781 155.907 20.8935C155.787 21.0089 155.687 21.1472 155.606 21.3083C155.526 21.4695 155.479 21.648 155.466 21.844V26.1554C155.466 26.2294 155.452 26.3034 155.423 26.3775C155.395 26.4515 155.352 26.5081 155.296 26.5473C155.239 26.5822 155.186 26.6061 155.136 26.6192C155.086 26.6322 155.028 26.6388 154.963 26.6388H153.486C153.299 26.6388 153.164 26.593 153.081 26.5016C152.999 26.4101 152.957 26.2882 152.957 26.1358V18.826C152.957 18.7433 152.976 18.6671 153.013 18.5974C153.05 18.5277 153.101 18.4733 153.166 18.4341L153.127 18.4537Z" fill="white" fill-opacity="0.68"/>
</svg>
