<svg width="120" height="80" viewBox="0 0 120 80" fill="none" xmlns="http://www.w3.org/2000/svg">
<g clip-path="url(#clip0_3_96)">
<path d="M33.1924 27.0405L60.1519 54L87.1924 26.9595L60.2329 0L33.1924 27.0405ZM60.1739 39.3981L47.7944 27.0186L72.5905 26.9814L60.1739 39.3981Z" fill="white"/>
<path d="M4.19252 79.6812C4.13938 79.5942 4.09228 79.5048 4.05121 79.413C4.01015 79.3213 3.97029 79.227 3.93165 79.1304L0.214153 69.3983C0.214153 69.3741 0.21053 69.3524 0.203283 69.3331C0.196037 69.3137 0.192413 69.2944 0.192413 69.2751C0.192413 69.1398 0.281788 69.0722 0.460537 69.0722H2.79393C2.97751 69.0722 3.10312 69.164 3.17075 69.3476L5.38096 75.9419C5.57903 75.3912 5.76865 74.8417 5.94982 74.2933C6.13098 73.745 6.30973 73.1955 6.48606 72.6447C6.66239 72.094 6.84114 71.5445 7.02231 70.9961C7.20347 70.4478 7.39309 69.8983 7.59116 69.3476C7.6588 69.164 7.79165 69.0722 7.98973 69.0722H10.2724C10.3835 69.0722 10.462 69.0927 10.5079 69.1338C10.5538 69.1748 10.5768 69.2292 10.5768 69.2968C10.5768 69.3355 10.5743 69.362 10.5695 69.3765V69.3983L6.83027 79.1304C6.80612 79.1981 6.77713 79.2729 6.74332 79.3551C6.7095 79.4372 6.67085 79.5133 6.62737 79.5833C6.58389 79.6534 6.53316 79.7126 6.47519 79.7609C6.41722 79.8092 6.352 79.8333 6.27953 79.8333H4.48963C4.33987 79.8333 4.24083 79.7826 4.19252 79.6812ZM11.8811 69.4055C11.8811 69.3041 11.9089 69.2232 11.9645 69.1628C12.02 69.1024 12.0985 69.0722 12.2 69.0722H19.3958C19.5021 69.0722 19.5842 69.1036 19.6422 69.1664C19.7002 69.2292 19.7292 69.3137 19.7292 69.42V71.2172C19.7292 71.2993 19.7002 71.3778 19.6422 71.4527C19.5842 71.5276 19.4997 71.565 19.3886 71.565H14.6928V73.3549H18.3161C18.4079 73.3549 18.484 73.3766 18.5444 73.4201C18.6047 73.4636 18.6349 73.5361 18.6349 73.6375V75.2028C18.6349 75.2704 18.6084 75.3356 18.5552 75.3984C18.5021 75.4612 18.4248 75.4926 18.3233 75.4926H14.6928V77.3405H19.5625C19.7799 77.3405 19.8886 77.4516 19.8886 77.6739V79.5C19.8886 79.5483 19.8693 79.5918 19.8306 79.6304C19.8113 79.7657 19.7123 79.8333 19.5335 79.8333H12.2C12.1034 79.8333 12.0261 79.808 11.9681 79.7573C11.9101 79.7065 11.8811 79.628 11.8811 79.5217V69.4055ZM21.4104 69.3838C21.4104 69.2968 21.4394 69.2219 21.4973 69.1591C21.5553 69.0963 21.635 69.0649 21.7365 69.0649H23.8815C23.9636 69.0649 24.0385 69.0939 24.1061 69.1519C24.1737 69.2099 24.21 69.2872 24.2148 69.3838V77.2681H28.2004C28.2874 77.2681 28.3623 77.297 28.4251 77.355C28.4879 77.413 28.5193 77.4927 28.5193 77.5942V79.5C28.5193 79.5821 28.4915 79.657 28.4359 79.7246C28.3804 79.7923 28.3019 79.8285 28.2004 79.8333H21.7292C21.5167 79.8333 21.4104 79.7271 21.4104 79.5145V69.3838ZM32.215 74.4564C32.215 74.8574 32.2827 75.2318 32.4179 75.5796C32.5532 75.9274 32.7428 76.2306 32.9868 76.4891C33.2307 76.7475 33.5194 76.9504 33.8527 77.0978C34.1861 77.2451 34.5532 77.3188 34.9542 77.3188C35.3552 77.3188 35.7236 77.2451 36.0593 77.0978C36.3951 76.9504 36.6849 76.7475 36.9289 76.4891C37.1729 76.2306 37.3625 75.9274 37.4978 75.5796C37.633 75.2318 37.7007 74.8574 37.7007 74.4564C37.7007 74.0602 37.633 73.687 37.4978 73.3368C37.3625 72.9865 37.1729 72.681 36.9289 72.4201C36.6849 72.1592 36.3951 71.9539 36.0593 71.8041C35.7236 71.6544 35.3552 71.5795 34.9542 71.5795C34.5532 71.5795 34.1861 71.6544 33.8527 71.8041C33.5194 71.9539 33.2307 72.1592 32.9868 72.4201C32.7428 72.681 32.5532 72.9865 32.4179 73.3368C32.2827 73.687 32.215 74.0602 32.215 74.4564ZM29.4178 74.4636C29.4178 73.9515 29.4831 73.46 29.6135 72.989C29.7439 72.5179 29.9299 72.0759 30.1715 71.6628C30.413 71.2498 30.7017 70.8742 31.0375 70.536C31.3732 70.1978 31.7464 69.9092 32.157 69.67C32.5677 69.4309 33.0085 69.2449 33.4795 69.112C33.9506 68.9792 34.4421 68.9128 34.9542 68.9128C35.4615 68.9128 35.9518 68.9792 36.4253 69.112C36.8987 69.2449 37.3408 69.4309 37.7514 69.67C38.162 69.9092 38.5364 70.1978 38.8746 70.536C39.2128 70.8742 39.5014 71.2498 39.7406 71.6628C39.9797 72.0759 40.1657 72.5179 40.2986 72.989C40.4314 73.46 40.4979 73.9515 40.4979 74.4636C40.4979 74.9757 40.4314 75.4673 40.2986 75.9383C40.1657 76.4093 39.9797 76.849 39.7406 77.2572C39.5014 77.6654 39.2128 78.0374 38.8746 78.3732C38.5364 78.7089 38.162 78.9976 37.7514 79.2391C37.3408 79.4807 36.8987 79.6667 36.4253 79.7971C35.9518 79.9276 35.4615 79.9928 34.9542 79.9928C34.4421 79.9928 33.9506 79.9276 33.4795 79.7971C33.0085 79.6667 32.5677 79.4807 32.157 79.2391C31.7464 78.9976 31.3732 78.7089 31.0375 78.3732C30.7017 78.0374 30.413 77.6654 30.1715 77.2572C29.9299 76.849 29.7439 76.4093 29.6135 75.9383C29.4831 75.4673 29.4178 74.9757 29.4178 74.4636ZM44.7588 71.594C44.8506 71.4587 44.9617 71.3247 45.0922 71.1918C45.2226 71.059 45.376 70.9406 45.5523 70.8367C45.7287 70.7329 45.9292 70.6483 46.1538 70.5831C46.3784 70.5179 46.6333 70.4853 46.9183 70.4853C47.4691 70.4853 47.9606 70.5915 48.393 70.8041C48.8254 71.0167 49.1925 71.3065 49.4945 71.6737C49.7964 72.0409 50.0259 72.4696 50.1829 72.96C50.3399 73.4503 50.4184 73.9733 50.4184 74.5289V79.2754C50.4184 79.4589 50.3786 79.5978 50.2988 79.692C50.2191 79.7862 50.0923 79.8333 49.9184 79.8333H48.2444C48.0367 79.8333 47.8942 79.7983 47.8169 79.7283C47.7396 79.6582 47.7009 79.5217 47.7009 79.3188V74.5289C47.7009 74.3211 47.6611 74.1279 47.5814 73.9491C47.5017 73.7704 47.3942 73.6146 47.2589 73.4817C47.1236 73.3489 46.9654 73.245 46.7843 73.1701C46.6031 73.0952 46.4111 73.0578 46.2082 73.0578C46.0342 73.0578 45.8639 73.0928 45.6973 73.1629C45.5306 73.2329 45.3808 73.332 45.248 73.46C45.1151 73.588 45.004 73.7414 44.9146 73.9201C44.8253 74.0989 44.7733 74.297 44.7588 74.5144V79.2971C44.7588 79.3792 44.7431 79.4614 44.7117 79.5435C44.6803 79.6256 44.6332 79.6884 44.5704 79.7319C44.5076 79.7705 44.4484 79.7971 44.3929 79.8116C44.3373 79.8261 44.2733 79.8333 44.2009 79.8333H42.5631C42.3554 79.8333 42.2056 79.7826 42.1138 79.6812C42.022 79.5797 41.9762 79.4444 41.9762 79.2754V73.3766V73.3259V71.1664V71.1302V68.4417C41.9762 68.2775 42.022 68.1446 42.1138 68.0432C42.2056 67.9417 42.3554 67.891 42.5631 67.891H44.2009C44.312 67.891 44.4352 67.9296 44.5704 68.0069C44.6332 68.0504 44.6803 68.1132 44.7117 68.1953C44.7431 68.2775 44.7588 68.3548 44.7588 68.4272V71.594ZM61.6289 79.2971C61.6289 79.3792 61.6144 79.4577 61.5854 79.5326C61.5564 79.6075 61.5081 79.6667 61.4404 79.7102C61.3873 79.7633 61.3245 79.7971 61.252 79.8116C61.1796 79.8261 61.1168 79.8333 61.0636 79.8333H59.6361C59.5346 79.8333 59.4525 79.8201 59.3897 79.7935C59.3269 79.7669 59.2761 79.7295 59.2375 79.6812C59.1988 79.6329 59.1662 79.5737 59.1397 79.5036C59.1131 79.4336 59.0853 79.3575 59.0563 79.2754L58.8462 78.7319C58.7157 78.8623 58.5732 79.0012 58.4186 79.1485C58.264 79.2959 58.0937 79.4324 57.9077 79.558C57.7217 79.6836 57.5201 79.7887 57.3027 79.8732C57.0853 79.9577 56.8534 80 56.607 80C56.1674 80 55.7459 79.9445 55.3425 79.8333C54.9391 79.7222 54.5622 79.564 54.212 79.3587C53.8617 79.1534 53.5441 78.907 53.2591 78.6195C52.974 78.3321 52.7289 78.012 52.5235 77.6594C52.3182 77.3067 52.16 76.9263 52.0489 76.518C51.9378 76.1098 51.8822 75.6835 51.8822 75.239C51.8822 74.5675 52.0054 73.9431 52.2518 73.3658C52.4982 72.7885 52.8339 72.286 53.2591 71.8585C53.6842 71.4309 54.1842 71.0952 54.7591 70.8512C55.334 70.6072 55.95 70.4853 56.607 70.4853C56.9065 70.4853 57.1819 70.53 57.4331 70.6193C57.6843 70.7087 57.9126 70.8259 58.1179 70.9708C58.3232 71.1157 58.5092 71.28 58.6759 71.4636C58.8426 71.6471 58.9911 71.8331 59.1215 72.0215L59.4042 71.1447C59.4525 71.0239 59.4923 70.9261 59.5237 70.8512C59.5551 70.7763 59.5889 70.7208 59.6252 70.6845C59.6614 70.6483 59.7061 70.6242 59.7592 70.6121C59.8124 70.6 59.8873 70.594 59.9839 70.594H61.0636C61.1168 70.594 61.1796 70.6012 61.252 70.6157C61.3245 70.6302 61.3873 70.664 61.4404 70.7172C61.5081 70.7703 61.5564 70.8307 61.5854 70.8983C61.6144 70.966 61.6289 71.0433 61.6289 71.1302V79.2971ZM54.491 75.239C54.491 75.5579 54.5405 75.8562 54.6395 76.134C54.7386 76.4118 54.8799 76.6521 55.0635 76.855C55.247 77.0579 55.4681 77.2185 55.7265 77.3369C55.985 77.4553 56.2712 77.5144 56.5852 77.5144C56.9089 77.5144 57.2097 77.4553 57.4874 77.3369C57.7652 77.2185 58.0068 77.0579 58.2121 76.855C58.4174 76.6521 58.5781 76.4118 58.694 76.134C58.8099 75.8562 58.8679 75.5579 58.8679 75.239C58.8679 74.9298 58.8099 74.6351 58.694 74.3549C58.5781 74.0747 58.4174 73.8284 58.2121 73.6158C58.0068 73.4032 57.7652 73.2353 57.4874 73.1121C57.2097 72.989 56.9089 72.9274 56.5852 72.9274C56.2712 72.9274 55.985 72.989 55.7265 73.1121C55.4681 73.2353 55.247 73.4032 55.0635 73.6158C54.8799 73.8284 54.7386 74.0747 54.6395 74.3549C54.5405 74.6351 54.491 74.9298 54.491 75.239ZM69.2595 76.9999C69.3271 76.9516 69.3911 76.9214 69.4515 76.9094C69.5119 76.8973 69.559 76.8912 69.5928 76.8912C69.675 76.8912 69.7499 76.9081 69.8175 76.942C69.8851 76.9758 69.9552 77.0482 70.0276 77.1594L70.8393 78.384C70.8634 78.4227 70.8864 78.4662 70.9081 78.5145C70.9298 78.5628 70.9407 78.6014 70.9407 78.6304C70.9407 78.7415 70.9057 78.8321 70.8356 78.9022C70.7656 78.9722 70.6895 79.0338 70.6074 79.0869C70.2112 79.3623 69.7776 79.5833 69.3066 79.75C68.8356 79.9167 68.3368 80 67.8102 80C67.3754 80 66.9563 79.9445 66.5529 79.8333C66.1495 79.7222 65.7739 79.564 65.4261 79.3587C65.0782 79.1534 64.7594 78.907 64.4695 78.6195C64.1797 78.3321 63.9333 78.012 63.7304 77.6594C63.5275 77.3067 63.3692 76.9263 63.2557 76.518C63.1422 76.1098 63.0854 75.6835 63.0854 75.239C63.0854 74.7946 63.1422 74.367 63.2557 73.9564C63.3692 73.5457 63.5275 73.1653 63.7304 72.815C63.9333 72.4648 64.1797 72.1459 64.4695 71.8585C64.7594 71.571 65.0782 71.3259 65.4261 71.123C65.7739 70.9201 66.1495 70.763 66.5529 70.6519C66.9563 70.5408 67.3754 70.4853 67.8102 70.4853C68.3368 70.4853 68.8235 70.5553 69.2704 70.6954C69.7172 70.8355 70.1363 71.0433 70.5276 71.3186L70.5059 71.2969C70.6122 71.3597 70.6967 71.4334 70.7595 71.5179C70.8223 71.6024 70.8537 71.7075 70.8537 71.8331C70.8537 71.9201 70.8248 72.0095 70.7668 72.1013L70.1218 73.1955C69.9866 73.4322 69.8223 73.5506 69.6291 73.5506C69.5856 73.5506 69.5325 73.5397 69.4696 73.518C69.4068 73.4962 69.3368 73.4588 69.2595 73.4056C69.0469 73.2655 68.8187 73.1508 68.5747 73.0614C68.3307 72.972 68.0711 72.9274 67.7957 72.9274C67.4913 72.9274 67.2111 72.989 66.9551 73.1121C66.699 73.2353 66.4804 73.4032 66.2993 73.6158C66.1181 73.8284 65.9768 74.0747 65.8754 74.3549C65.7739 74.6351 65.7232 74.9298 65.7232 75.239C65.7232 75.5579 65.7739 75.8562 65.8754 76.134C65.9768 76.4118 66.1181 76.6521 66.2993 76.855C66.4804 77.0579 66.699 77.2185 66.9551 77.3369C67.2111 77.4553 67.4913 77.5144 67.7957 77.5144C68.0711 77.5144 68.3295 77.4661 68.5711 77.3695C68.8126 77.2729 69.0421 77.1497 69.2595 76.9999ZM72.3176 68.449C72.3176 68.3668 72.32 68.292 72.3248 68.2243C72.3296 68.1567 72.3502 68.0987 72.3864 68.0504C72.4226 68.0021 72.4794 67.9647 72.5567 67.9381C72.634 67.9115 72.7427 67.8982 72.8828 67.8982H74.6147C74.7065 67.8982 74.7826 67.9139 74.843 67.9453C74.9034 67.9767 74.9517 68.0166 74.9879 68.0649C75.0241 68.1132 75.0483 68.1652 75.0604 68.2207C75.0725 68.2763 75.0785 68.3282 75.0785 68.3765V73.739L77.6873 70.8403C77.8129 70.7002 77.9626 70.6302 78.1366 70.6302H80.3612C80.627 70.6302 80.7598 70.7341 80.7598 70.9418C80.7598 70.9949 80.7514 71.0384 80.7344 71.0722C80.7175 71.1061 80.6825 71.1544 80.6294 71.2172L77.651 74.3622L81.3975 79.1739H81.383C81.4458 79.2367 81.4905 79.3007 81.5171 79.3659C81.5436 79.4312 81.5569 79.4903 81.5569 79.5435C81.5569 79.6546 81.5267 79.7307 81.4664 79.7717C81.406 79.8128 81.3154 79.8333 81.1946 79.8333H78.7453C78.6631 79.8333 78.5858 79.8019 78.5134 79.7391C78.4409 79.6763 78.3612 79.5821 78.2742 79.4565L75.9046 76.1014L75.1002 76.9347V79.2754C75.1002 79.314 75.0942 79.3647 75.0821 79.4275C75.07 79.4903 75.0459 79.5519 75.0097 79.6123C74.9734 79.6727 74.9239 79.7246 74.8611 79.7681C74.7983 79.8116 74.7162 79.8333 74.6147 79.8333H72.7958C72.7089 79.8333 72.634 79.8104 72.5712 79.7645C72.5084 79.7186 72.4589 79.6667 72.4226 79.6087C72.3864 79.5507 72.3598 79.4964 72.3429 79.4457C72.326 79.3949 72.3176 79.3647 72.3176 79.3551V68.449ZM82.6729 77.7463C82.6729 77.6497 82.6995 77.5724 82.7526 77.5144C82.8058 77.4565 82.8855 77.4275 82.9918 77.4275H84.9049C84.987 77.4275 85.0631 77.4565 85.1331 77.5144C85.2032 77.5724 85.2382 77.6497 85.2382 77.7463V79.5C85.2382 79.587 85.2104 79.6643 85.1549 79.7319C85.0993 79.7995 85.016 79.8333 84.9049 79.8333H82.9918C82.7792 79.8333 82.6729 79.7222 82.6729 79.5V77.7463ZM92.8761 76.9999C92.9437 76.9516 93.0077 76.9214 93.0681 76.9094C93.1285 76.8973 93.1756 76.8912 93.2094 76.8912C93.2916 76.8912 93.3664 76.9081 93.4341 76.942C93.5017 76.9758 93.5718 77.0482 93.6442 77.1594L94.4558 78.384C94.48 78.4227 94.5029 78.4662 94.5247 78.5145C94.5464 78.5628 94.5573 78.6014 94.5573 78.6304C94.5573 78.7415 94.5223 78.8321 94.4522 78.9022C94.3822 78.9722 94.3061 79.0338 94.224 79.0869C93.8278 79.3623 93.3942 79.5833 92.9232 79.75C92.4522 79.9167 91.9534 80 91.4268 80C90.992 80 90.5729 79.9445 90.1695 79.8333C89.7661 79.7222 89.3905 79.564 89.0426 79.3587C88.6948 79.1534 88.376 78.907 88.0861 78.6195C87.7962 78.3321 87.5498 78.012 87.3469 77.6594C87.144 77.3067 86.9858 76.9263 86.8723 76.518C86.7588 76.1098 86.702 75.6835 86.702 75.239C86.702 74.7946 86.7588 74.367 86.8723 73.9564C86.9858 73.5457 87.144 73.1653 87.3469 72.815C87.5498 72.4648 87.7962 72.1459 88.0861 71.8585C88.376 71.571 88.6948 71.3259 89.0426 71.123C89.3905 70.9201 89.7661 70.763 90.1695 70.6519C90.5729 70.5408 90.992 70.4853 91.4268 70.4853C91.9534 70.4853 92.4401 70.5553 92.887 70.6954C93.3338 70.8355 93.7529 71.0433 94.1442 71.3186L94.1225 71.2969C94.2288 71.3597 94.3133 71.4334 94.3761 71.5179C94.4389 71.6024 94.4703 71.7075 94.4703 71.8331C94.4703 71.9201 94.4413 72.0095 94.3834 72.1013L93.7384 73.1955C93.6032 73.4322 93.4389 73.5506 93.2457 73.5506C93.2022 73.5506 93.149 73.5397 93.0862 73.518C93.0234 73.4962 92.9534 73.4588 92.8761 73.4056C92.6635 73.2655 92.4352 73.1508 92.1913 73.0614C91.9473 72.972 91.6876 72.9274 91.4123 72.9274C91.1079 72.9274 90.8277 72.989 90.5717 73.1121C90.3156 73.2353 90.097 73.4032 89.9159 73.6158C89.7347 73.8284 89.5934 74.0747 89.4919 74.3549C89.3905 74.6351 89.3398 74.9298 89.3398 75.239C89.3398 75.5579 89.3905 75.8562 89.4919 76.134C89.5934 76.4118 89.7347 76.6521 89.9159 76.855C90.097 77.0579 90.3156 77.2185 90.5717 77.3369C90.8277 77.4553 91.1079 77.5144 91.4123 77.5144C91.6876 77.5144 91.9461 77.4661 92.1877 77.3695C92.4292 77.2729 92.6587 77.1497 92.8761 76.9999ZM95.3472 75.239C95.3472 74.7946 95.4039 74.367 95.5175 73.9564C95.631 73.5457 95.7904 73.1653 95.9957 72.815C96.2011 72.4648 96.4474 72.1459 96.7349 71.8585C97.0223 71.571 97.3424 71.3259 97.6951 71.123C98.0477 70.9201 98.4282 70.763 98.8364 70.6519C99.2446 70.5408 99.671 70.4853 100.115 70.4853C100.772 70.4853 101.39 70.6072 101.967 70.8512C102.544 71.0952 103.047 71.4309 103.474 71.8585C103.902 72.286 104.24 72.7885 104.489 73.3658C104.738 73.9431 104.862 74.5675 104.862 75.239C104.862 75.6835 104.805 76.1098 104.692 76.518C104.578 76.9263 104.419 77.3067 104.213 77.6594C104.008 78.012 103.762 78.3321 103.474 78.6195C103.187 78.907 102.867 79.1534 102.514 79.3587C102.161 79.564 101.783 79.7222 101.38 79.8333C100.977 79.9445 100.555 80 100.115 80C99.671 80 99.2446 79.9445 98.8364 79.8333C98.4282 79.7222 98.0477 79.564 97.6951 79.3587C97.3424 79.1534 97.0223 78.907 96.7349 78.6195C96.4474 78.3321 96.2011 78.012 95.9957 77.6594C95.7904 77.3067 95.631 76.9263 95.5175 76.518C95.4039 76.1098 95.3472 75.6835 95.3472 75.239ZM97.9922 75.239C97.9922 75.5579 98.0417 75.8562 98.1407 76.134C98.2398 76.4118 98.3799 76.6521 98.561 76.855C98.7422 77.0579 98.962 77.2185 99.2205 77.3369C99.4789 77.4553 99.77 77.5144 100.094 77.5144C100.408 77.5144 100.692 77.4553 100.945 77.3369C101.199 77.2185 101.414 77.0579 101.59 76.855C101.766 76.6521 101.902 76.4118 101.996 76.134C102.09 75.8562 102.137 75.5579 102.137 75.239C102.137 74.9298 102.09 74.6351 101.996 74.3549C101.902 74.0747 101.766 73.8284 101.59 73.6158C101.414 73.4032 101.199 73.2353 100.945 73.1121C100.692 72.989 100.408 72.9274 100.094 72.9274C99.77 72.9274 99.4789 72.989 99.2205 73.1121C98.962 73.2353 98.7422 73.4032 98.561 73.6158C98.3799 73.8284 98.2398 74.0747 98.1407 74.3549C98.0417 74.6351 97.9922 74.9298 97.9922 75.239ZM106.492 70.7534C106.555 70.7002 106.622 70.6664 106.692 70.6519C106.762 70.6374 106.828 70.6302 106.891 70.6302H107.985C108.072 70.6302 108.147 70.6459 108.21 70.6773C108.273 70.7087 108.326 70.751 108.369 70.8041C108.413 70.8573 108.448 70.9176 108.474 70.9853C108.501 71.0529 108.526 71.123 108.55 71.1954L108.775 72.123C108.848 71.9732 108.936 71.8029 109.04 71.6121C109.143 71.4213 109.281 71.2425 109.453 71.0759C109.624 70.9092 109.839 70.7691 110.098 70.6556C110.356 70.542 110.678 70.4853 111.065 70.4853C111.683 70.4853 112.224 70.6169 112.688 70.8802C113.152 71.1435 113.534 71.4974 113.833 71.9418C113.925 71.7921 114.051 71.6314 114.21 71.4599C114.369 71.2884 114.56 71.1302 114.782 70.9853C115.005 70.8403 115.26 70.7208 115.547 70.6266C115.834 70.5324 116.152 70.4853 116.5 70.4853C117.051 70.4853 117.542 70.5915 117.975 70.8041C118.407 71.0167 118.774 71.3065 119.076 71.6737C119.378 72.0409 119.607 72.4696 119.764 72.96C119.922 73.4503 120 73.9733 120 74.5289V79.2754C120 79.4589 119.96 79.5978 119.88 79.692C119.801 79.7862 119.674 79.8333 119.5 79.8333H117.826C117.618 79.8333 117.476 79.7983 117.398 79.7283C117.321 79.6582 117.283 79.5217 117.283 79.3188V74.5289C117.283 74.3211 117.25 74.1279 117.185 73.9491C117.119 73.7704 117.029 73.6146 116.913 73.4817C116.797 73.3489 116.656 73.245 116.489 73.1701C116.322 73.0952 116.138 73.0578 115.935 73.0578C115.751 73.0578 115.577 73.094 115.413 73.1665C115.249 73.239 115.104 73.3392 114.978 73.4672C114.853 73.5953 114.752 73.7498 114.677 73.931C114.603 74.1122 114.565 74.3115 114.565 74.5289V79.2754C114.565 79.4589 114.525 79.5978 114.446 79.692C114.366 79.7862 114.239 79.8333 114.065 79.8333H113.913H113.855H112.391C112.183 79.8333 112.041 79.7983 111.964 79.7283C111.886 79.6582 111.848 79.5217 111.848 79.3188V74.5289C111.848 74.3211 111.817 74.1279 111.757 73.9491C111.697 73.7704 111.61 73.6146 111.496 73.4817C111.383 73.3489 111.245 73.245 111.083 73.1701C110.921 73.0952 110.739 73.0578 110.536 73.0578C110.362 73.0578 110.192 73.0928 110.025 73.1629C109.858 73.2329 109.709 73.332 109.576 73.46C109.443 73.588 109.332 73.7414 109.242 73.9201C109.153 74.0989 109.101 74.297 109.087 74.5144V79.2971C109.087 79.3792 109.071 79.4614 109.04 79.5435C109.008 79.6256 108.961 79.6884 108.898 79.7319C108.835 79.7705 108.776 79.7971 108.721 79.8116C108.665 79.8261 108.601 79.8333 108.529 79.8333H106.891C106.683 79.8333 106.533 79.7826 106.442 79.6812C106.35 79.5797 106.304 79.4444 106.304 79.2754V71.1664C106.304 71.0747 106.325 70.9901 106.366 70.9128C106.407 70.8355 106.463 70.7751 106.536 70.7316L106.492 70.7534Z" fill="white"/>
</g>
<defs>
<clipPath id="clip0_3_96">
<rect width="119.808" height="80" fill="white" transform="translate(0.192413)"/>
</clipPath>
</defs>
</svg>
