<svg width="190" height="54" viewBox="0 0 190 54" fill="none" xmlns="http://www.w3.org/2000/svg">
<path d="M0.0961914 27.0405L27.0557 54L54.0962 26.9595L27.1367 0L0.0961914 27.0405ZM27.0776 39.3981L14.6981 27.0186L39.4943 26.9814L27.0776 39.3981Z" fill="white"/>
<path d="M74.0963 32.7355C74.0432 32.6485 73.9961 32.5592 73.955 32.4674C73.9139 32.3756 73.8741 32.2814 73.8354 32.1847L70.1179 22.4526C70.1179 22.4284 70.1143 22.4067 70.1071 22.3874C70.0998 22.3681 70.0962 22.3487 70.0962 22.3294C70.0962 22.1941 70.1856 22.1265 70.3643 22.1265H72.6977C72.8813 22.1265 73.0069 22.2183 73.0745 22.4019L75.2847 28.9963C75.4828 28.4455 75.6724 27.896 75.8536 27.3477C76.0348 26.7993 76.2135 26.2498 76.3898 25.6991C76.5662 25.1483 76.7449 24.5988 76.9261 24.0505C77.1073 23.5021 77.2969 22.9526 77.4949 22.4019C77.5626 22.2183 77.6954 22.1265 77.8935 22.1265H80.1762C80.2873 22.1265 80.3658 22.147 80.4117 22.1881C80.4576 22.2292 80.4805 22.2835 80.4805 22.3511C80.4805 22.3898 80.4781 22.4164 80.4733 22.4309V22.4526L76.7341 32.1847C76.7099 32.2524 76.6809 32.3273 76.6471 32.4094C76.6133 32.4915 76.5746 32.5676 76.5311 32.6377C76.4877 32.7077 76.4369 32.7669 76.379 32.8152C76.321 32.8635 76.2558 32.8877 76.1833 32.8877H74.3934C74.2436 32.8877 74.1446 32.8369 74.0963 32.7355ZM81.7849 22.4598C81.7849 22.3584 81.8127 22.2775 81.8682 22.2171C81.9238 22.1567 82.0023 22.1265 82.1038 22.1265H89.2996C89.4059 22.1265 89.488 22.1579 89.546 22.2207C89.604 22.2835 89.633 22.3681 89.633 22.4743V24.2715C89.633 24.3536 89.604 24.4321 89.546 24.507C89.488 24.5819 89.4035 24.6193 89.2924 24.6193H84.5966V26.4092H88.2199C88.3117 26.4092 88.3877 26.431 88.4481 26.4744C88.5085 26.5179 88.5387 26.5904 88.5387 26.6918V28.2571C88.5387 28.3247 88.5121 28.39 88.459 28.4528C88.4059 28.5156 88.3286 28.547 88.2271 28.547H84.5966V30.3948H89.4663C89.6837 30.3948 89.7924 30.506 89.7924 30.7282V32.5543C89.7924 32.6026 89.7731 32.6461 89.7344 32.6848C89.7151 32.82 89.616 32.8877 89.4373 32.8877H82.1038C82.0071 32.8877 81.9298 32.8623 81.8719 32.8116C81.8139 32.7609 81.7849 32.6823 81.7849 32.5761V22.4598ZM91.3142 22.4381C91.3142 22.3511 91.3431 22.2763 91.4011 22.2135C91.4591 22.1507 91.5388 22.1193 91.6403 22.1193H93.7852C93.8674 22.1193 93.9422 22.1482 94.0099 22.2062C94.0775 22.2642 94.1138 22.3415 94.1186 22.4381V30.3224H98.1042C98.1912 30.3224 98.266 30.3514 98.3288 30.4093C98.3916 30.4673 98.423 30.547 98.423 30.6485V32.5543C98.423 32.6365 98.3953 32.7113 98.3397 32.779C98.2842 32.8466 98.2056 32.8828 98.1042 32.8877H91.633C91.4204 32.8877 91.3142 32.7814 91.3142 32.5688V22.4381ZM102.119 27.5107C102.119 27.9117 102.186 28.2861 102.322 28.6339C102.457 28.9818 102.647 29.2849 102.891 29.5434C103.135 29.8018 103.423 30.0047 103.757 30.1521C104.09 30.2994 104.457 30.3731 104.858 30.3731C105.259 30.3731 105.627 30.2994 105.963 30.1521C106.299 30.0047 106.589 29.8018 106.833 29.5434C107.077 29.2849 107.266 28.9818 107.402 28.6339C107.537 28.2861 107.604 27.9117 107.604 27.5107C107.604 27.1146 107.537 26.7414 107.402 26.3911C107.266 26.0409 107.077 25.7353 106.833 25.4744C106.589 25.2135 106.299 25.0082 105.963 24.8585C105.627 24.7087 105.259 24.6338 104.858 24.6338C104.457 24.6338 104.09 24.7087 103.757 24.8585C103.423 25.0082 103.135 25.2135 102.891 25.4744C102.647 25.7353 102.457 26.0409 102.322 26.3911C102.186 26.7414 102.119 27.1146 102.119 27.5107ZM99.3216 27.518C99.3216 27.0059 99.3868 26.5143 99.5173 26.0433C99.6477 25.5722 99.8337 25.1302 100.075 24.7172C100.317 24.3041 100.605 23.9285 100.941 23.5903C101.277 23.2521 101.65 22.9635 102.061 22.7243C102.471 22.4852 102.912 22.2992 103.383 22.1664C103.854 22.0335 104.346 21.9671 104.858 21.9671C105.365 21.9671 105.856 22.0335 106.329 22.1664C106.802 22.2992 107.245 22.4852 107.655 22.7243C108.066 22.9635 108.44 23.2521 108.778 23.5903C109.117 23.9285 109.405 24.3041 109.644 24.7172C109.884 25.1302 110.069 25.5722 110.202 26.0433C110.335 26.5143 110.402 27.0059 110.402 27.518C110.402 28.03 110.335 28.5216 110.202 28.9926C110.069 29.4637 109.884 29.9033 109.644 30.3115C109.405 30.7197 109.117 31.0917 108.778 31.4275C108.44 31.7632 108.066 32.0519 107.655 32.2934C107.245 32.535 106.802 32.721 106.329 32.8514C105.856 32.9819 105.365 33.0471 104.858 33.0471C104.346 33.0471 103.854 32.9819 103.383 32.8514C102.912 32.721 102.471 32.535 102.061 32.2934C101.65 32.0519 101.277 31.7632 100.941 31.4275C100.605 31.0917 100.317 30.7197 100.075 30.3115C99.8337 29.9033 99.6477 29.4637 99.5173 28.9926C99.3868 28.5216 99.3216 28.03 99.3216 27.518ZM114.663 24.6483C114.754 24.513 114.866 24.379 114.996 24.2461C115.126 24.1133 115.28 23.9949 115.456 23.891C115.632 23.7872 115.833 23.7026 116.058 23.6374C116.282 23.5722 116.537 23.5396 116.822 23.5396C117.373 23.5396 117.864 23.6459 118.297 23.8584C118.729 24.071 119.096 24.3609 119.398 24.728C119.7 25.0952 119.93 25.5239 120.087 26.0143C120.244 26.5046 120.322 27.0276 120.322 27.5832V32.3297C120.322 32.5133 120.282 32.6522 120.203 32.7464C120.123 32.8406 119.996 32.8877 119.822 32.8877H118.148C117.94 32.8877 117.798 32.8526 117.721 32.7826C117.643 32.7125 117.605 32.5761 117.605 32.3732V27.5832C117.605 27.3754 117.565 27.1822 117.485 27.0034C117.405 26.8247 117.298 26.6689 117.163 26.536C117.027 26.4032 116.869 26.2993 116.688 26.2244C116.507 26.1496 116.315 26.1121 116.112 26.1121C115.938 26.1121 115.768 26.1471 115.601 26.2172C115.434 26.2872 115.285 26.3863 115.152 26.5143C115.019 26.6423 114.908 26.7957 114.818 26.9745C114.729 27.1532 114.677 27.3513 114.663 27.5687V32.3514C114.663 32.4335 114.647 32.5157 114.616 32.5978C114.584 32.6799 114.537 32.7427 114.474 32.7862C114.411 32.8249 114.352 32.8514 114.297 32.8659C114.241 32.8804 114.177 32.8877 114.105 32.8877H112.467C112.259 32.8877 112.109 32.8369 112.018 32.7355C111.926 32.634 111.88 32.4988 111.88 32.3297V26.431V26.3802V24.2208V24.1845V21.4961C111.88 21.3318 111.926 21.1989 112.018 21.0975C112.109 20.996 112.259 20.9453 112.467 20.9453H114.105C114.216 20.9453 114.339 20.984 114.474 21.0613C114.537 21.1047 114.584 21.1675 114.616 21.2497C114.647 21.3318 114.663 21.4091 114.663 21.4816V24.6483ZM131.533 32.3514C131.533 32.4335 131.518 32.5121 131.489 32.5869C131.46 32.6618 131.412 32.721 131.344 32.7645C131.291 32.8176 131.228 32.8514 131.156 32.8659C131.083 32.8804 131.021 32.8877 130.967 32.8877H129.54C129.438 32.8877 129.356 32.8744 129.293 32.8478C129.231 32.8212 129.18 32.7838 129.141 32.7355C129.103 32.6872 129.07 32.628 129.043 32.5579C129.017 32.4879 128.989 32.4118 128.96 32.3297L128.75 31.7862C128.62 31.9166 128.477 32.0555 128.322 32.2029C128.168 32.3502 127.998 32.4867 127.812 32.6123C127.626 32.7379 127.424 32.843 127.206 32.9275C126.989 33.0121 126.757 33.0543 126.511 33.0543C126.071 33.0543 125.65 32.9988 125.246 32.8877C124.843 32.7766 124.466 32.6183 124.116 32.413C123.766 32.2077 123.448 31.9613 123.163 31.6739C122.878 31.3864 122.633 31.0664 122.427 30.7137C122.222 30.361 122.064 29.9806 121.953 29.5724C121.842 29.1641 121.786 28.7378 121.786 28.2933C121.786 27.6218 121.909 26.9974 122.156 26.4201C122.402 25.8428 122.738 25.3404 123.163 24.9128C123.588 24.4853 124.088 24.1495 124.663 23.9055C125.238 23.6616 125.854 23.5396 126.511 23.5396C126.81 23.5396 127.086 23.5843 127.337 23.6736C127.588 23.763 127.816 23.8802 128.022 24.0251C128.227 24.17 128.413 24.3343 128.58 24.5179C128.746 24.7015 128.895 24.8874 129.025 25.0759L129.308 24.199C129.356 24.0782 129.396 23.9804 129.428 23.9055C129.459 23.8307 129.493 23.7751 129.529 23.7389C129.565 23.7026 129.61 23.6785 129.663 23.6664C129.716 23.6543 129.791 23.6483 129.888 23.6483H130.967C131.021 23.6483 131.083 23.6555 131.156 23.67C131.228 23.6845 131.291 23.7183 131.344 23.7715C131.412 23.8246 131.46 23.885 131.489 23.9526C131.518 24.0203 131.533 24.0976 131.533 24.1845V32.3514ZM124.395 28.2933C124.395 28.6122 124.444 28.9105 124.543 29.1883C124.642 29.4661 124.784 29.7064 124.967 29.9093C125.151 30.1122 125.372 30.2729 125.63 30.3912C125.889 30.5096 126.175 30.5688 126.489 30.5688C126.813 30.5688 127.113 30.5096 127.391 30.3912C127.669 30.2729 127.911 30.1122 128.116 29.9093C128.321 29.7064 128.482 29.4661 128.598 29.1883C128.714 28.9105 128.772 28.6122 128.772 28.2933C128.772 27.9842 128.714 27.6895 128.598 27.4093C128.482 27.1291 128.321 26.8827 128.116 26.6701C127.911 26.4575 127.669 26.2897 127.391 26.1665C127.113 26.0433 126.813 25.9817 126.489 25.9817C126.175 25.9817 125.889 26.0433 125.63 26.1665C125.372 26.2897 125.151 26.4575 124.967 26.6701C124.784 26.8827 124.642 27.1291 124.543 27.4093C124.444 27.6895 124.395 27.9842 124.395 28.2933ZM139.163 30.0543C139.231 30.0059 139.295 29.9758 139.355 29.9637C139.416 29.9516 139.463 29.9456 139.497 29.9456C139.579 29.9456 139.654 29.9625 139.721 29.9963C139.789 30.0301 139.859 30.1026 139.931 30.2137L140.743 31.4384C140.767 31.477 140.79 31.5205 140.812 31.5688C140.834 31.6171 140.844 31.6557 140.844 31.6847C140.844 31.7958 140.809 31.8864 140.739 31.9565C140.669 32.0265 140.593 32.0881 140.511 32.1413C140.115 32.4166 139.681 32.6377 139.21 32.8043C138.739 32.971 138.241 33.0543 137.714 33.0543C137.279 33.0543 136.86 32.9988 136.457 32.8877C136.053 32.7766 135.678 32.6183 135.33 32.413C134.982 32.2077 134.663 31.9613 134.373 31.6739C134.083 31.3864 133.837 31.0664 133.634 30.7137C133.431 30.361 133.273 29.9806 133.159 29.5724C133.046 29.1641 132.989 28.7378 132.989 28.2933C132.989 27.8489 133.046 27.4213 133.159 27.0107C133.273 26.6001 133.431 26.2196 133.634 25.8694C133.837 25.5191 134.083 25.2003 134.373 24.9128C134.663 24.6254 134.982 24.3802 135.33 24.1773C135.678 23.9744 136.053 23.8174 136.457 23.7063C136.86 23.5951 137.279 23.5396 137.714 23.5396C138.241 23.5396 138.727 23.6096 139.174 23.7497C139.621 23.8898 140.04 24.0976 140.431 24.3729L140.41 24.3512C140.516 24.414 140.601 24.4877 140.663 24.5722C140.726 24.6568 140.758 24.7618 140.758 24.8874C140.758 24.9744 140.729 25.0638 140.671 25.1556L140.026 26.2498C139.89 26.4865 139.726 26.6049 139.533 26.6049C139.489 26.6049 139.436 26.594 139.373 26.5723C139.311 26.5505 139.241 26.5131 139.163 26.46C138.951 26.3199 138.722 26.2051 138.478 26.1157C138.235 26.0264 137.975 25.9817 137.699 25.9817C137.395 25.9817 137.115 26.0433 136.859 26.1665C136.603 26.2897 136.384 26.4575 136.203 26.6701C136.022 26.8827 135.881 27.1291 135.779 27.4093C135.678 27.6895 135.627 27.9842 135.627 28.2933C135.627 28.6122 135.678 28.9105 135.779 29.1883C135.881 29.4661 136.022 29.7064 136.203 29.9093C136.384 30.1122 136.603 30.2729 136.859 30.3912C137.115 30.5096 137.395 30.5688 137.699 30.5688C137.975 30.5688 138.233 30.5205 138.475 30.4238C138.716 30.3272 138.946 30.204 139.163 30.0543ZM142.221 21.5033C142.221 21.4212 142.224 21.3463 142.229 21.2787C142.233 21.211 142.254 21.153 142.29 21.1047C142.326 21.0564 142.383 21.019 142.46 20.9924C142.538 20.9658 142.646 20.9526 142.787 20.9526H144.518C144.61 20.9526 144.686 20.9683 144.747 20.9997C144.807 21.0311 144.855 21.0709 144.892 21.1192C144.928 21.1675 144.952 21.2195 144.964 21.275C144.976 21.3306 144.982 21.3825 144.982 21.4308V26.7933L147.591 23.8947C147.717 23.7546 147.866 23.6845 148.04 23.6845H150.265C150.531 23.6845 150.664 23.7884 150.664 23.9961C150.664 24.0493 150.655 24.0927 150.638 24.1266C150.621 24.1604 150.586 24.2087 150.533 24.2715L147.555 27.4165L151.301 32.2282H151.287C151.35 32.291 151.394 32.355 151.421 32.4203C151.447 32.4855 151.461 32.5447 151.461 32.5978C151.461 32.7089 151.431 32.785 151.37 32.8261C151.31 32.8671 151.219 32.8877 151.098 32.8877H148.649C148.567 32.8877 148.49 32.8563 148.417 32.7935C148.345 32.7307 148.265 32.6365 148.178 32.5108L145.808 29.1557L145.004 29.989V32.3297C145.004 32.3683 144.998 32.4191 144.986 32.4819C144.974 32.5447 144.95 32.6063 144.913 32.6666C144.877 32.727 144.828 32.779 144.765 32.8224C144.702 32.8659 144.62 32.8877 144.518 32.8877H142.7C142.613 32.8877 142.538 32.8647 142.475 32.8188C142.412 32.7729 142.363 32.721 142.326 32.663C142.29 32.605 142.264 32.5507 142.247 32.5C142.23 32.4492 142.221 32.4191 142.221 32.4094V21.5033ZM152.577 30.8007C152.577 30.704 152.603 30.6267 152.656 30.5688C152.71 30.5108 152.789 30.4818 152.896 30.4818H154.809C154.891 30.4818 154.967 30.5108 155.037 30.5688C155.107 30.6267 155.142 30.704 155.142 30.8007V32.5543C155.142 32.6413 155.114 32.7186 155.059 32.7862C155.003 32.8538 154.92 32.8877 154.809 32.8877H152.896C152.683 32.8877 152.577 32.7766 152.577 32.5543V30.8007ZM162.78 30.0543C162.847 30.0059 162.912 29.9758 162.972 29.9637C163.032 29.9516 163.079 29.9456 163.113 29.9456C163.195 29.9456 163.27 29.9625 163.338 29.9963C163.405 30.0301 163.476 30.1026 163.548 30.2137L164.36 31.4384C164.384 31.477 164.407 31.5205 164.428 31.5688C164.45 31.6171 164.461 31.6557 164.461 31.6847C164.461 31.7958 164.426 31.8864 164.356 31.9565C164.286 32.0265 164.21 32.0881 164.128 32.1413C163.732 32.4166 163.298 32.6377 162.827 32.8043C162.356 32.971 161.857 33.0543 161.331 33.0543C160.896 33.0543 160.477 32.9988 160.073 32.8877C159.67 32.7766 159.294 32.6183 158.946 32.413C158.599 32.2077 158.28 31.9613 157.99 31.6739C157.7 31.3864 157.454 31.0664 157.251 30.7137C157.048 30.361 156.89 29.9806 156.776 29.5724C156.663 29.1641 156.606 28.7378 156.606 28.2933C156.606 27.8489 156.663 27.4213 156.776 27.0107C156.89 26.6001 157.048 26.2196 157.251 25.8694C157.454 25.5191 157.7 25.2003 157.99 24.9128C158.28 24.6254 158.599 24.3802 158.946 24.1773C159.294 23.9744 159.67 23.8174 160.073 23.7063C160.477 23.5951 160.896 23.5396 161.331 23.5396C161.857 23.5396 162.344 23.6096 162.791 23.7497C163.238 23.8898 163.657 24.0976 164.048 24.3729L164.026 24.3512C164.133 24.414 164.217 24.4877 164.28 24.5722C164.343 24.6568 164.374 24.7618 164.374 24.8874C164.374 24.9744 164.345 25.0638 164.287 25.1556L163.642 26.2498C163.507 26.4865 163.343 26.6049 163.149 26.6049C163.106 26.6049 163.053 26.594 162.99 26.5723C162.927 26.5505 162.857 26.5131 162.78 26.46C162.567 26.3199 162.339 26.2051 162.095 26.1157C161.851 26.0264 161.591 25.9817 161.316 25.9817C161.012 25.9817 160.731 26.0433 160.475 26.1665C160.219 26.2897 160.001 26.4575 159.82 26.6701C159.638 26.8827 159.497 27.1291 159.396 27.4093C159.294 27.6895 159.244 27.9842 159.244 28.2933C159.244 28.6122 159.294 28.9105 159.396 29.1883C159.497 29.4661 159.638 29.7064 159.82 29.9093C160.001 30.1122 160.219 30.2729 160.475 30.3912C160.731 30.5096 161.012 30.5688 161.316 30.5688C161.591 30.5688 161.85 30.5205 162.091 30.4238C162.333 30.3272 162.562 30.204 162.78 30.0543ZM165.251 28.2933C165.251 27.8489 165.308 27.4213 165.421 27.0107C165.535 26.6001 165.694 26.2196 165.9 25.8694C166.105 25.5191 166.351 25.2003 166.639 24.9128C166.926 24.6254 167.246 24.3802 167.599 24.1773C167.951 23.9744 168.332 23.8174 168.74 23.7063C169.148 23.5951 169.575 23.5396 170.019 23.5396C170.676 23.5396 171.293 23.6616 171.871 23.9055C172.448 24.1495 172.95 24.4853 173.378 24.9128C173.806 25.3404 174.144 25.8428 174.392 26.4201C174.641 26.9974 174.766 27.6218 174.766 28.2933C174.766 28.7378 174.709 29.1641 174.595 29.5724C174.482 29.9806 174.322 30.361 174.117 30.7137C173.912 31.0664 173.665 31.3864 173.378 31.6739C173.091 31.9613 172.77 32.2077 172.418 32.413C172.065 32.6183 171.687 32.7766 171.284 32.8877C170.88 32.9988 170.459 33.0543 170.019 33.0543C169.575 33.0543 169.148 32.9988 168.74 32.8877C168.332 32.7766 167.951 32.6183 167.599 32.413C167.246 32.2077 166.926 31.9613 166.639 31.6739C166.351 31.3864 166.105 31.0664 165.9 30.7137C165.694 30.361 165.535 29.9806 165.421 29.5724C165.308 29.1641 165.251 28.7378 165.251 28.2933ZM167.896 28.2933C167.896 28.6122 167.945 28.9105 168.045 29.1883C168.144 29.4661 168.284 29.7064 168.465 29.9093C168.646 30.1122 168.866 30.2729 169.124 30.3912C169.383 30.5096 169.674 30.5688 169.997 30.5688C170.311 30.5688 170.595 30.5096 170.849 30.3912C171.103 30.2729 171.318 30.1122 171.494 29.9093C171.67 29.7064 171.805 29.4661 171.9 29.1883C171.994 28.9105 172.041 28.6122 172.041 28.2933C172.041 27.9842 171.994 27.6895 171.9 27.4093C171.805 27.1291 171.67 26.8827 171.494 26.6701C171.318 26.4575 171.103 26.2897 170.849 26.1665C170.595 26.0433 170.311 25.9817 169.997 25.9817C169.674 25.9817 169.383 26.0433 169.124 26.1665C168.866 26.2897 168.646 26.4575 168.465 26.6701C168.284 26.8827 168.144 27.1291 168.045 27.4093C167.945 27.6895 167.896 27.9842 167.896 28.2933ZM176.396 23.8077C176.459 23.7546 176.525 23.7208 176.595 23.7063C176.666 23.6918 176.732 23.6845 176.795 23.6845H177.889C177.976 23.6845 178.051 23.7002 178.114 23.7316C178.176 23.763 178.23 23.8053 178.273 23.8584C178.317 23.9116 178.352 23.972 178.378 24.0396C178.405 24.1072 178.43 24.1773 178.454 24.2498L178.679 25.1773C178.751 25.0275 178.839 24.8573 178.943 24.6664C179.047 24.4756 179.185 24.2969 179.356 24.1302C179.528 23.9635 179.743 23.8234 180.001 23.7099C180.26 23.5964 180.582 23.5396 180.969 23.5396C181.587 23.5396 182.128 23.6712 182.592 23.9345C183.056 24.1978 183.437 24.5517 183.737 24.9961C183.829 24.8464 183.954 24.6858 184.114 24.5142C184.273 24.3427 184.464 24.1845 184.686 24.0396C184.908 23.8947 185.163 23.7751 185.451 23.6809C185.738 23.5867 186.056 23.5396 186.404 23.5396C186.954 23.5396 187.446 23.6459 187.878 23.8584C188.311 24.071 188.678 24.3609 188.98 24.728C189.282 25.0952 189.511 25.5239 189.668 26.0143C189.825 26.5046 189.904 27.0276 189.904 27.5832V32.3297C189.904 32.5133 189.864 32.6522 189.784 32.7464C189.705 32.8406 189.578 32.8877 189.404 32.8877H187.73C187.522 32.8877 187.38 32.8526 187.302 32.7826C187.225 32.7125 187.186 32.5761 187.186 32.3732V27.5832C187.186 27.3754 187.154 27.1822 187.088 27.0034C187.023 26.8247 186.933 26.6689 186.817 26.536C186.701 26.4032 186.559 26.2993 186.393 26.2244C186.226 26.1496 186.041 26.1121 185.838 26.1121C185.655 26.1121 185.481 26.1484 185.317 26.2208C185.152 26.2933 185.008 26.3935 184.882 26.5216C184.756 26.6496 184.656 26.8042 184.581 26.9853C184.506 27.1665 184.469 27.3658 184.469 27.5832V32.3297C184.469 32.5133 184.429 32.6522 184.349 32.7464C184.27 32.8406 184.143 32.8877 183.969 32.8877H183.817H183.759H182.295C182.087 32.8877 181.945 32.8526 181.867 32.7826C181.79 32.7125 181.751 32.5761 181.751 32.3732V27.5832C181.751 27.3754 181.721 27.1822 181.661 27.0034C181.6 26.8247 181.513 26.6689 181.4 26.536C181.286 26.4032 181.149 26.2993 180.987 26.2244C180.825 26.1496 180.643 26.1121 180.44 26.1121C180.266 26.1121 180.096 26.1471 179.929 26.2172C179.762 26.2872 179.612 26.3863 179.48 26.5143C179.347 26.6423 179.236 26.7957 179.146 26.9745C179.057 27.1532 179.005 27.3513 178.99 27.5687V32.3514C178.99 32.4335 178.975 32.5157 178.943 32.5978C178.912 32.6799 178.865 32.7427 178.802 32.7862C178.739 32.8249 178.68 32.8514 178.625 32.8659C178.569 32.8804 178.505 32.8877 178.432 32.8877H176.795C176.587 32.8877 176.437 32.8369 176.345 32.7355C176.254 32.634 176.208 32.4988 176.208 32.3297V24.2208C176.208 24.129 176.228 24.0444 176.269 23.9671C176.31 23.8898 176.367 23.8294 176.44 23.786L176.396 23.8077Z" fill="white"/>
</svg>
